<?xml version="1.0" encoding="utf-8"?>
<!-- Generator: Adobe Illustrator 23.0.3, SVG Export Plug-In . SVG Version: 6.00 Build 0)  -->
<svg version="1.1" id="Layer_1" xmlns="http://www.w3.org/2000/svg" xmlns:xlink="http://www.w3.org/1999/xlink" x="0px" y="0px"
	 viewBox="0 0 1200 1200" enable-background="new 0 0 1200 1200" xml:space="preserve">
<g>
	<path fill="#F9F4EA" d="M277.523,853.932c-8.012-9.003-14.41-16.703-20.328-24.816c-13.476-18.475-20.394-39.778-26.598-61.337
		c-1.246-4.331-1.433-9.466,0.989-13.819c2.472-4.444,1.019-8.396-0.782-12.441c-5.58-12.532-11.262-25.02-16.691-37.617
		c-2.221-5.153-3.584-10.295-3.736-16.315c-0.168-6.677-3.928-13.317-6.407-19.866c-1.903-5.025-4.321-9.884-4.04-15.438
		c0.229-4.531-2.829-7.651-5.219-10.612c-10.507-13.017-20.956-26.157-32.492-38.234c-4.899-5.129-12.319-7.93-18.76-11.489
		c-18.779-10.375-35.07-23.916-46.903-41.646c-6.011-9.007-12.742-17.06-19.613-25.281c-10.592-12.672-16.213-27.817-16.14-44.477
		c0.027-6.174-2.155-11.851-2.22-17.909c-0.197-18.456,3.222-36.752,2.268-55.266c-0.178-3.462,1.52-7.234,3.059-10.533
		c5.11-10.954,9.001-22.193,10.602-34.258c1.786-13.458,7.483-25.468,13.655-37.492c4.276-8.331,7.866-16.939,13.526-24.519
		c1.629-2.181,2.921-4.439,5.578-5.535c15.238-6.283,28.665-15.941,43.335-23.298c13.155-6.598,26.264-13.221,40.201-18.12
		c5.925-2.083,11.872-1.924,17.897-1.911c8.786,0.02,16.893-1.162,20.854-10.63c0.647-1.547,1.653-2.979,3.479-3.381
		c9.347-2.059,18.421-6.413,28.377-2.238c10.633,4.459,22.056,5.121,33.377,6.16c10.698,0.981,20.793-1.437,30.19-6.147
		c9.888-4.957,20.259-3.891,30.621-3.883c2.992,0.003,4.94,1.955,6.78,3.921c4.172,4.457,9.358,5.516,15.3,6.351
		c10.816,1.522,21.837,1.714,32.279,6.454c8.524,3.87,18.252,3.802,27.706,3.401c2.95-0.125,4.922-1.856,7.21-3.231
		c7.581-4.557,15.382-7.781,24.697-7.031c8.898,0.716,17.354-2.081,24.733-7.04c4.031-2.709,7.881,1.251,12.239,3.106
		c4.795,2.041,9.945-4.622,14.863-2.881c13.324,4.716,24.463,11.992,32.417,23.98c3.315,4.997,7.555,9.377,11.322,14.078
		c5.524,6.893,13.769,5.972,21.153,7.126c4.598,0.719,9.421,0.424,14.105,0.074c7.782-0.581,14.198,2.219,20.757,6.17
		c15.773,9.5,30.93,20.03,47.393,28.401c6.36,3.234,13.038,5.22,19.891,6.915c2.023,0.5,3.848,0.792,5.875,0.095
		c5.276-1.816,10.475-1.49,15.762,0.364c9.99,3.504,20.538,5.046,29.69,11.391c4.864,3.372,11.94,1.922,17.742,0.618
		c7.426-1.67,14.448-1.795,21.82,0.116c3.805,0.986,8.022,0.499,12.052,0.487c16.096-0.045,32.018,1.9,47.919,4.093
		c1.647,0.227,3.329,0.531,4.873,1.119c18.765,7.151,38.232,12.547,56.086,21.983c16.02,8.466,33.492,14.012,48.614,24.268
		c1.935,1.313,4.22,2.265,5.816,3.9c11.672,11.955,26.078,19.378,40.751,27.016c11.885,6.187,24.191,13.345,30.443,26.789
		c1.355,2.914,4.233,5.146,6.508,7.602c10.716,11.569,23.286,21.392,32.437,34.439c0.575,0.821,1.668,1.409,1.946,2.288
		c3.793,11.976,14.336,19.003,21.039,28.833c0.376,0.552,1.019,0.957,1.287,1.545c9.044,19.853,22.11,37.703,29.193,58.528
		c6.906,20.307,13.145,40.771,17.389,61.863c1.399,6.952,1.199,13.933,2.309,20.885c2.626,16.456,3.192,33.233,4.81,49.86
		c0.633,6.51-1.473,12.606-2.089,18.918c-3.24,33.155-13.497,64.087-29.534,93.199c-3.998,7.257-9.982,13.034-16.383,17.569
		c-9.889,7.007-18.369,15.433-26.93,23.73c-10.409,10.088-22.697,16.449-35.913,21.589c-2.273,0.884-4.534,1.27-6.889,1.132
		c-5.815-0.339-11.074,2.037-16.552,3.07c-15.048,2.839-26.972,10.833-38.578,19.853c-3.497,2.718-6.821,5.152-11.838,3.607
		c-3.433-1.057-6.614,1.096-9.256,3.137c-8.301,6.411-16.437,4.563-24.058-0.757c-3.749-2.617-6.465-5.77-11.073-1.51
		c-1.748,1.616-4.501,1.01-6.754,0.036c-1.895-0.819-4.045-1.728-5.847-0.863c-8.615,4.136-12.272-2.443-16.225-7.585
		c-4.182-5.439-7.121-10.956-1.86-18.121c3.644-4.964,0.734-10.135-5.711-10.581c-7.025-0.487-13.987-1.067-20.921-2.284
		c-1.909-0.335-4.627-0.542-5.487,1.511c-5.156,12.3-16.351,9.619-25.837,10.12c-4.086,0.216-8.66-0.985-12.776-2.078
		c-5.671-1.506-11.284-1.796-16.96-1.503c-8.8,0.454-17.285-1.891-25.945-2.651c-12.285-1.078-24.453-3.743-36.862-3.39
		c-4.82,0.137-9.281-1.828-13.877-1.872c-8.668-0.083-17.357-1.187-26.056,1.236c-5.077,1.415-10.65,1.112-15.964-0.35
		c-6.276-1.726-12.483-0.862-18.89-0.136c-11.656,1.32-23.117,2.824-34.207,6.995c-4.96,1.865-9.838,4.018-15.204,5.069
		c-13.096,2.565-25.921,7.032-39.103,8.477c-10.579,1.16-21.225,3.505-31.975,2.632c-6.99-0.568-13.259,1.272-19.413,4.142
		c-5.707,2.661-7.522,6.769-5.586,12.961c0.595,1.902,1.293,3.805,2.214,5.566c2.646,5.054,4.978,10.356,8.254,14.98
		c7.093,10.014,5.141,20.173,1.413,30.497c-1.407,3.896-4.042-3.414-7.676-1.123c-4.549,2.868-6.76-1.087-9.871-2.451
		c-2.153-0.944-4.38-1.869-6.273-3.223c-4.522-3.233-8.513-4.697-12.523,0.932c-2.027,2.846-4.761,2.108-8.035,0.775
		c-6.48-2.637-11.317,3.035-15.812-1.936c-3.294-3.643-6.584-6.5-12.028-4.62c-1.484,0.512-3.603,0.517-4.959-0.172
		c-4.581-2.329-7.629-8.465-10.49-5.12c-4.226,4.942-8.721,4.582-14.221,1.589c-13.952-7.592-21.978-12.281-29.645-25.23
		c-4.069-6.872-3.442-7.239-10.94-5.288c-0.968,0.252-2.214,0.139-2.888,0.715c-5.417,4.624-10.868,5.943-17.184,1.453
		c-4.724-3.358-11.022-4.054-13.264-11.209c-1.73-5.521-8.137-6.292-14.772-4.11c-7.008,2.305-13.944,4.283-19.673,9.481
		c-3.657,3.318-7.914,3.876-12.545,0.104c-4.08-3.323-9.915-4.268-14.225-1.152c-7.926,5.73-14.392,1.177-18.856-3.416
		c-5.708-5.872-11.878-11.796-15.615-19.514c-3.434-7.094-3.035-13.531,1.838-19.764
		C260.424,864.921,265.578,856.458,277.523,853.932z"/>
	<path fill="#6D6964" d="M822.088,342.288c9.144,1.041,18.729-0.427,27.135,4.837c1.508,0.944,3.274,1.26,4.517-0.353
		c3.89-5.047,8.296-2.623,12.727-1.103c44.709,15.337,85.136,38.133,120.502,69.591c21.564,19.181,43.779,37.653,63.837,58.491
		c10.497,10.905,19.845,22.665,29.106,34.653c26.171,33.876,41.195,72.813,52.905,113.21c4.256,14.682,7.068,30.036,5.142,45.68
		c-0.599,4.868,2.202,9.018,3.411,13.495c1.308,4.845,3.498,9.464,3.618,14.596c0.055,2.35,0.313,5.479-2.484,5.945
		c-6.54,1.092-4.291,5.276-3.902,9.084c1.327,12.992,3.584,26.003,3.475,38.991c-0.086,10.347,1.027,21.548-7.472,30.426
		c-2.817,2.942-3.569,7.834-5.361,11.791c-1.941,4.286-4.408,7.935-8.189,11.175c-4.084,3.5-6.616,8.891-8.139,14.123
		c-1.223,4.203-2.903,8.22-4.117,12.393c-2.007,6.898-5.016,12.362-13.36,12.672c-2.78,0.103-4.788,1.837-5.623,4.924
		c-3.328,12.305-13.527,16.332-24.244,19.358c-3.875,1.094-7.981,0.861-8.499,6.502c-0.224,2.432-2.839,3.624-5.258,4.108
		c-9.076,1.816-16.405,6.209-23.376,12.532c-6.102,5.535-14.21,8.743-22.756,10.077c-12.261,1.913-24.566,3.711-36.676,6.363
		c-8.936,1.957-17.876-0.34-26.862,1.488c-6.503,1.322-13.154,2.264-19.742,3.443c-10.235,1.832-20.666,3.079-30.505-2.256
		c-5.646-3.061-10.476-14.66-8.947-21.801c1.451-6.776,6.358-10.905,14.68-11.394c7.035-0.414,14.113-0.085,21.85-0.085
		c-2.443-5.131-4.368-9.937-6.917-14.386c-7.906-13.803-8.881-29.368-11.696-44.472c-0.121-0.652-0.201-1.386-0.031-2.008
		c5.472-20.028,8.05-40.799,15.83-60.246c4.9-12.249,12.774-20.311,28.646-20.443c-8.87-8.597-19.108-9.945-28.492-13.955
		c10.322-6.043,10.322-6.043,57.602,9.763c-2.054-4.506-5.692-6.079-8.567-8.349c-1.583-1.249-3.215-2.436-4.831-3.642
		c-12.17-9.085-12.929-13.564-4.245-26.78c-4.811-4.297-10.915-6.351-16.507-9.296c-2.54-1.338-5.871-2.257-4.015-6.62
		c1.669-3.923,4.686-3.432,7.57-2.615c5.802,1.644,11.498,3.665,17.237,5.53c8.462,0.809,14.94,6.162,21.898,9.546
		c-5.675-3.903-12.892-5.965-18.144-11.215c-9.685-6.274-20.906-9.595-32.741-16.136c12.891-2.182,22.766,2.469,33.021,3.955
		c1.021,0.006,1.94,0.46,2.906,0.67c1.018,0.872-0.366,1.413,0.722,0.62c0.273-0.199,0.158-0.506-0.346-0.919
		c-0.135-0.111-0.461-0.167-0.999-0.176c-0.977-0.612-1.588-1.577-2.426-2.304c-13.459-8.914-27.521-16.828-41.935-24.217
		c1.75-3.063,3.916-1.802,5.652-2.163c0.547-0.065,1.295,1.944,1.643-0.16c-2.23-6.764,2.71-5.766,6.504-6.01
		c0.974-0.032,1.162-0.436,0.64-1.261c-0.3-0.474-0.454-0.751-0.589-0.751c-1.811-1.435-3.809-2.691-5.391-4.345
		c-3.099-3.241-2.601-4.004,3.133-5.252c2.069,0.375,3.153-0.115,2.145-2.442c-0.765-1.022-2.151-2.04-2.157-3.067
		c-0.012-1.837,1.886-1.481,3.106-1.421c2.325,0.113,4.638,0.45,6.956,0.694c1.246,0.673,2.702,0.207,3.928,0.707
		c-0.046-0.027,0.599,0.463,0.599,0.463s-0.164-0.793-0.214-0.818c-0.964-0.637-1.632-1.499-2.358-2.303
		c-0.731-0.806-1.462-1.612-2.193-2.418c0.502-0.573,1.139-0.874,1.884-0.941c1.016-0.161,2.044-0.263,3.074-0.207
		c-0.009-0.016,0.646-0.771,0.646-0.771s-0.941,0.338-0.958,0.325c-0.976-0.573-1.484-1.556-2.199-2.345
		c-3.507-2.598-7.113-5.075-10.486-7.837c-2.108-1.727-5.879-3.375-1.173-6.682c1.984-1.394-0.489-2.09-1.229-2.685
		c-2.031-1.632-5.013-1.899-6.47-4.387c1.232-3.801,5.087-2.467,8.039-4.18c-7.966-6.252-17.396-8.643-27.217-11.962
		c4.698-5.006,9.937-2.196,14.834-3.082c-3.927-5.01-4.528-10.294-0.497-15.23c4.357-5.336,8.343-11.589,17.163-8.913
		c7.28,2.209,14.727,3.869,22.047,5.759c1.803-3.583-1.326-3.672-2.693-4.325c-6.665-3.183-13.61-5.666-20.722-7.704
		c-2.469-0.708-5.69-1.072-5.658-4.665c0.031-3.474,2.488-5.318,5.446-6.538c1.757-0.724,3.958,0.31,5.968-1.807
		c-9.722-6.922-20.769-11.727-29.011-20.846c4.754-1.506,10.211,0.199,15.56,0.04c0.337,0.006,0.675,0.013,1.011,0.017
		c0.951,0.025,1.905,0.03,2.795,0.358c0.531,0.224,0.858,0.638,0.938,1.219c0.243-0.456,0.476-0.919,0.671-1.403
		c-0.004-0.004,0.688-0.368,0.688-0.368c3.665-0.692,6.62,1.676,9.976,2.313c1.316,1.013,3.181,0.293,4.408,1.371
		c0.477-0.018,0.699,1.424,1.193,0.553c0.641-1.131,0.308,0.729-0.655-0.32c-1.05-1.225-2.214-2.237-3.203-3.412
		c-7.69-4.735-15.374-9.482-23.077-14.197c-1.674-1.024-4.576-1.981-3.739-4.015c2.608-6.337-2.621-7.548-5.943-9.64
		c-9.567-6.025-19.348-11.709-29.285-17.671c7.748-5.37,17.929-4.068,42.152,4.908c1.301,1.05,3.186,0.322,4.403,1.418
		c0.473-0.018,0.714,1.419,1.19,0.542c0.619-1.142,0.304,0.727-0.66-0.322c-1.061-1.231-2.202-2.289-3.101-3.556
		c-15.686-11.797-31.022-24.076-47.731-34.788c12.641-0.734,23.044,5.407,33.789,10.421c2.337,0.88,4.849,1.371,6.703,2.992
		c-0.115-0.077,0.266,0.213,0.266,0.213s-0.248-0.215-0.361-0.277c-1.966-1.349-3.478-2.957-4.659-4.878
		c-16.004-11.038-31.805-22.388-48.097-32.985c-8.189-5.326-17.922-7.434-27.471-9.281c-7.268-1.406-7.327-1.1-14.374-7.012
		c8.886-5.327,18.224-3.239,27.34-2.547c2.293,0.174,4.563,1.135,6.912,0.614c1.415-0.314,2.147-1.552,2.572-2.816
		c0.509-1.513-0.426-2.535-1.609-3.267c-0.845-0.523-1.767-0.957-2.705-1.292c-18.017-6.417-36.28-11.896-55.321-14.377
		c2.295-5.212,6.436-2.285,9.921-2.249c2.705,0.193,5.41,0.385,8.114,0.578c0.872-0.782,2.604,0.991,3.03-1.061
		c-0.186-1.051-0.34-2.072-0.925-2.972c-1.438-1.381-3.023-2.57-4.389-3.995c-2.573-0.835-5.145-1.671-7.718-2.506
		C815.488,339.221,819.098,342.01,822.088,342.288z"/>
	<path fill="#B2603B" d="M340.906,391.009c-0.594-5.238-5.626-7.193-8.235-10.972c-2.855-4.137-4.357-7.53,1.773-10.456
		c-6.795-5.803-14.223-8.995-21.157-12.965c-3.782-2.165-7.864-3.879-11.402-6.375c-3.2-2.257-6.694-4.927-4.471-9.882
		c14.001-4.035,26.448,0.604,37.581,8.214c31.621,21.615,56.733,49.928,81.089,79.182c25.576,30.719,46.412,64.034,61.546,101.011
		c1.254,3.063,1.026,9.654,8.617,6.039c2.28-1.086,5.075,4.271,5.593,7.404c2.093,12.653,14.49,17.918,19.683,28.272
		c0.894,1.784,2.406,2.329,3.759,0.291c2.376-3.578,4.303-1.953,6.192,0.456c0.413,0.527,0.761,1.105,1.137,1.662
		c-0.473-10.471,9.322-1.356,11.809-6.207c0.787-0.581,1.658-0.814,2.623-0.721c1.995,0.531,2.828,2.64,4.768,3.486
		c1.337-3.494-2.514-8.628,1.737-10.5c4.364-1.922,6.623,2.674,8.904,5.753c1.046,2.314,2.842,3.883,5.111,4.983
		c0.903,0.633,1.653,1.405,2.239,2.234c0.971-1.113-0.527-1.834-0.396-2.792c-0.589-3.875-2.63-8.199,1.813-10.921
		c3.415-2.092,7.032-1.213,10.364,0.429c-1.393-7.709-5.579-15.486-5.658-24.18c0.425-1.456,1.297-2.535,2.673-3.188
		c3.749-0.738,5.983-2.495,5.476-6.849c-0.606-5.208,1.079-7.909,6.86-5.409c4.484,1.939,4.827-0.821,5.164-4.37
		c0.477-5.022,2.125-8.624,7.129-2.78c6.211,8.636,11.691,17.782,18.748,25.833c4.285,4.888,5.729,10.569,1.089,16.115
		c-1.768,2.113-0.805,3.504-0.011,5.313c2.002,4.565,4.055,9.118,5.794,13.785c0.869,2.333,2.098,4.969-0.838,7.791
		c-9.177-5.627-14.046-15.601-22.047-22.346c-2.937-0.597-3.056-3.624-4.643-5.381c-0.991-1.134-2.175-2.104-2.893-3.287
		c0.08,0.123-0.068,0.002,0,0.103c0.434,0.862,0.994,1.477,1.579,2.108c0.756,0.799,1.502,1.571,2.138,2.443
		c0.505,1.392,0.998,2.785,0.879,4.302c0.892,4.106,3.782,6.994,6.228,10.141c9.081,11.684,15.865,24.658,21.615,38.225
		c0.652,1.538,1.549,2.967,0.431,5.445c-3.856-1.591-5.368-5.263-7.52-8.217c-2.156-2.96-4.173-6.021-6.25-9.038
		c-0.458-0.621-1.022-0.831-1.576-0.46c-0.895,0.601-1.057,1.369-0.299,2.226c-0.666,3.365,4.02,7.753-1.932,10.107
		c0,0-0.823-0.371-0.812-0.369c0.011,0.002-0.129,0.872-0.129,0.869c0.147,0.561,0.328,1.114,0.543,1.656
		c3.288,8.39,7.126,16.567,9.325,25.373c0.888,3.555,1.829,6.972-0.049,11.98c-4.086-7.563-7.354-14.161-11.177-20.42
		c-1.583-2.593-2.954-8.256-6.029-6.572c-4.404,2.412,0.486,6.188,1.617,9.225c3.029,8.133,7.125,15.867,9.013,24.424
		c0.523,1.963,1.804,4.315-2.064,4.027c-4.922-0.475-1.59,3.5-2.704,5.123c-0.944,1.375-1.499,3.063-3.49,3.093
		c-2.417,0.036-2.338-1.852-2.447-3.489c-0.138-2.081-0.849-3.898-2.787-6.003c-1.963,6.094-6.549,3.171-10.256,3.049
		c-2.316,2.747,0.656,7.942-5.025,8.9c-2.044,0.345,0.135,2.754,0.119,4.237c-0.038,3.462,3.18,6.674,0.593,10.908
		c-5.691-4.098-8.482-10.353-12.748-15.311c-0.455-0.718-1.007-0.913-1.588-0.493c-0.876,0.633-1.263,1.398-0.464,2.376
		c1.838,6.618,6.176,12.522,6.032,20.794c-6.9-5.356-9.46-12.862-14.281-18.583c-1.096-0.886-2.142-1.819-2.815-3.076
		c-0.38-0.522-0.776-1.047-1.171-1.555c-0.336-0.515-0.574-1.084-0.701-1.686c0.004,0.013,0.472-0.734,0.472-0.734
		s-0.784,0.403-0.775,0.423c0.286,0.573,0.527,1.141,0.743,1.736c0.681,0.791,1.31,1.597,1.66,2.595
		c0.534,1.428-0.127,3,0.576,4.394c2.035,9.752,4.07,19.505,6.369,30.521c-5.939-2.538-6.698-7.814-10.053-10.645
		c-1.891-1.079-2.994-2.686-3.245-4.851c-0.156-0.796-0.561-1.095-1.211-0.891c0.634,0.089,1.074,0.409,1.25,1.052
		c0.115,1.605,0.677,3.139,0.681,4.754c0.66,6.279,4.604,12.057,3.676,20.926c-7.176-8.033-10.562-15.992-15.673-22.7
		c-2.524-1.231-2.388,0.264-2.031,1.983c0,2.255,0,4.51,0,7.738c-7.032-4.085-7.643-12.591-13.947-15.955
		c-2.251-1.337-2.552-3.879-3.653-5.913c-0.431-0.524-0.768-1.115-0.985-1.663c0.031,0.095-0.307-0.499-0.307-0.499
		s0.162,0.248,0.198,0.291c0.261,0.882,0.852,1.506,1.322,2.238c0.781,1.729,0.901,3.543,0.932,5.372
		c1.131,4.486,1.779,9.171,3.519,13.407c2.022,4.922-1.514,6.828-4.175,8.843c-3.34,2.53-5.423-0.665-7.337-2.838
		c-2.626-2.982-5.047-6.144-7.556-9.229c-2.615-0.946-2.744,0.47-2.304,2.426c0.001,1.335-0.013,2.67,0.006,4.005
		c0.026,1.758-0.245,3.469-2.244,3.89c-1.329,0.28-2.523-0.445-3.438-1.528c-2.366-2.801-4.771-5.569-7.143-8.365
		c-1.914-2.256-2.81-5.904-6.774-1.083c-2.088,2.539-4.317-3.165-7.296-3.68c-1.467,2.261,0.29,5.309-2.152,7.763
		c-7.295-4.2-11.297-11.776-17.083-17.54c-0.607-0.492-1.233-0.957-1.836-1.338c0.047,0.051,0.048-0.862,0.048-0.862
		s-0.803,0.434-0.772,0.438c0.274,0.541,0.437,1.102,0.52,1.686c2.018,5.65,4.342,11.214,5.963,16.976
		c1.42,5.049-3.059,9.124-8.174,7.824c-3.551-0.903-7.6-1.31-10.031-4.21c-5.099-6.084-11.582-8.421-19.222-8.964
		c-3.566-0.254-4.745-4.574-7.903-5.862c-0.533-0.063-1.016-0.252-1.439-0.56c0.011,0.009-0.601-0.379-0.601-0.379
		s-0.609,0.392-0.6,0.394c0.009,0.002,0.07,0.711,0.07,0.711c-0.398,2.04,0.474,5.63-3.641,3.425
		c-1.387-0.744-2.226-2.457-3.448-3.583c-0.695-0.64-1.657-0.99-2.499-1.47c-4.85,9.459-6.751-0.732-10.305-1.398
		c-1.445,0.639-1.858,2.176-2.438,3.765c-2.592,7.106-5.444,7.794-10.233,2.31c-1.962-2.246-3.736-4.849-4.875-7.589
		c-8.392-20.185-19.604-38.918-29.652-58.25c-2.159-4.154-4.177-8.424-5.756-12.822c-1.004-2.797-1.695-6.82,1.548-8.162
		c6.414-2.654,3.032-6.032,1.506-9.468c-0.817-1.839-1.846-3.598-2.51-5.488c-1.272-3.618-0.843-6.854,3.402-7.974
		c6.012-1.586,4.481-4.333,1.646-7.748c-5.353-6.448-10.547-13.027-15.852-19.516c-3.093-3.783-9.595-3.457-11.12-9.26
		c-0.322-1.224-1.271-2.431-2.234-3.313c-3.34-3.058,2.957-5.861,0.019-9.104c-2.218-2.449-3.983-5.394-5.532-8.338
		c-1.327-2.522,0.578-3.614,2.75-4.052c3.612-0.729,6.615,0.742,9.237,3.002c5.063,4.364,10.035,8.833,15.045,13.258
		c0.767,0.626,1.426,1.381,2.2,1.842c-0.078-0.063,0.483,0.188,0.483,0.188s-0.262-0.371-0.331-0.416
		c-0.501-0.375-0.852-0.776-1.145-1.288c-0.309-0.692-0.212-1.278,0.272-1.801c-4.082-7.015-10.1-12.453-15.254-18.589
		c-1.298-1.546-2.57-4.181-5.566-2.18c-1.797,1.2-3.224,0.084-4.21-1.37c-2.824-4.169-5.608-8.368-8.27-12.642
		c-0.886-1.422-1.36-3.25-0.146-4.687c1.176-1.392,3.009-1.221,4.702-1.072c3.466,0.305,5.333,4.17,8.995,4.034
		c0.276,0.437,0.607,0.827,0.999,1.166c-0.337-0.391-0.723-0.727-1.152-1.014c-0.402-4.051-4.42-5.689-6.002-8.983
		c-0.817-1.7-2.968-3.084-1.266-5.217c1.056-1.324,2.617-1.901,4.461-1.651c1.705,0.231,3.361,3.013,5.145,0.334
		c1.675-2.516,0.038-4.368-1.549-6.163c-7.284-8.235-14.553-16.483-21.851-24.705c-1.548-1.744-3.357-3.279-4.745-5.135
		c-1.342-1.794-3.351-3.95-1.383-6.199c1.579-1.804,4.153-2.006,6.556-1.431c6.79,1.623,11.168,7.067,16.738,10.625
		c0.711,0.472,1.403,1.704,2.165,0.052c-0.997-6.903-8.291-11.373-7.136-19.408c0.273-1.897-3.472-4.371-5.369-6.58
		c-0.404-2.175,0.45-3.044,2.632-2.539c5.514,2.2,8.905,7.224,13.739,10.328c0.663,0.229,1.315,2.016,1.992,0.013
		c0.82-5.237-0.764-9.276-4.722-13.117c-8.07-7.833-15.582-16.24-24.214-25.349c8.181,0.378,12.995,5.572,18.994,7.802
		c0.4,0.108,0.799,0.215,1.199,0.321c2.463,0.727,4.073,2.601,5.794,4.305c0.582,0.47,1.236,0.839,1.938,1.102
		c0.885,0.57,1.621,1.329,2.366,2.053c0.439,0.44,0.889,0.891,1.325,1.326c-0.013-0.017,0.402,0.701,0.402,0.701
		s-0.361-0.691-0.377-0.711c-0.448-0.436-0.878-0.854-1.315-1.287c-0.716-0.732-1.411-1.463-2.279-2.02
		c-1.039-0.544-1.946-1.241-2.77-2.07c-1.452-1.568-3.181-2.788-4.833-4.101c-0.666-0.586-1.093-1.312-1.285-2.178
		c-5.629-6.017-11.259-12.034-17.605-18.817c8.316-0.465,12.757,5.925,18.976,7.884c2.52,0.815,3.534,0.113,2.583-2.566
		c-0.533-1.484-2.433-2.654-1.506-4.444c1.136-2.192,3.39-1.952,5.205-1.331c8.183,2.801,15.671,6.986,22.74,11.939
		c0.461,0.67,1.093,1.073,1.856,1.196c0.559,0.303,1.166,0.598,1.758,0.828c-0.027-0.04-0.347,0.769-0.347,0.769
		s0.714-0.498,0.705-0.496c-0.566-0.192-1.05-0.502-1.466-0.928C341.51,392.028,341.096,391.637,340.906,391.009z"/>
	<path fill="#6D6964" d="M559.398,574.625c-0.75-1.298-1.499-2.596-2.249-3.893c-1.671-1.801-4.438-2.059-5.883-4.178
		c-1.698-2.851-3.743-5.325-7.589-6.979c-0.305,5.671,3.664,10.967,0.138,16.679c-4.128-2.201-4.426-6.685-6.846-9.543
		c-0.727-0.654-1.447-1.535-2.247-0.078c0.028,2.934,0.851,6.006-1.37,8.736c-4.379-0.644-3.435-6.411-7.384-7.272
		c-2.3,3.458,3.605,7.744-1.52,11.294c-3.472-1.913-3.396-6.835-6.582-9.127c-2.053,2.283,0.314,5.469-2.252,7.709
		c-0.636-0.117-2.022,0.033-2.376-0.501c-3.828-5.769-7.493-11.645-11.265-17.591c-0.901,1.27-1.621,2.285-2.721,3.836
		c-4.436-9.429-8.678-18.446-13.068-27.778c-3.316,1.855-0.149,6.098-4.121,7.777c-3.537-7.356-7.563-14.587-10.589-22.215
		c-14.803-37.313-37.741-69.307-63.581-99.604c-13.295-15.588-26.322-31.357-41.535-45.145
		c-11.693-10.598-23.683-20.992-37.127-29.183c-9.441-5.752-20.731-6.879-31.818-7.206c-2.041-3.223-5.332-3.805-8.734-4.055
		c-2.673-0.197-5.379-0.081-8.029-0.424c-3.174-0.41-7.464,0.019-7.456-4.732c0.007-4.26,3.435-5.399,7.12-5.243
		c5.651,0.239,8.993-3.954,13.294-6.581c-1.507-5.106-3.813-8.177-9.969-5.911c-3.716,1.368-7.832,1.672-11.783,2.369
		c-1.597,0.282-3.516,0.775-4.172-1.414c-0.57-1.902,0.759-3.28,2.199-4.079c5.733-3.18,12.32-2.636,18.486-3.956
		c1.942-0.416,4.036-0.138,5.968-0.581c1.351-0.31,1.992-1.625,1.928-3.12c-0.076-1.772-1.433-2.333-2.723-2.243
		c-3.321,0.232-6.612,0.892-9.932,1.141c-2.329,0.175-4.69,0.009-7.031-0.108c-1.424-0.071-2.678-0.801-3.15-2.125
		c-0.613-1.722,0.128-3.205,1.407-4.486c9.964-9.986,21.048-17.891,35.19-21.132c9.072-2.079,15.059-9.756,22.865-14.229
		c0.355-0.581,1.764-0.574,0.998-1.78c-0.722-1.136,0.561,0.559-0.741,0.219c-2.51-0.558-5.339,1.244-7.888-1.248
		c1.002-4.716,5.463-5.34,8.873-6.877c10.815-4.877,22.544-6.158,34.073-8.225c27.25-4.883,53.363-1.843,78.129,10.93
		c23.256,7.244,46.884,13.665,66.762,28.703c4.309,3.26,12.215,6.93,9.032,12.276c-2.99,5.022-9.411-1.036-13.999-3.029
		c-6.724-2.922-13.427-5.934-19.962-9.255c-1.806-0.248-2.99-2.234-5.039-1.85c-1.313-0.304-1.194,1.575-0.484,0.85
		c2.192-2.24,3.593,1.423,5.671,1.206c17.149,7.836,31.723,18.992,42.941,34.16c2.595,3.508,7.311,8.416-0.83,11.717
		c-4.138-2.098-6.878-5.995-10.765-8.411c-1.01-0.763-2.137-1.37-3.096-2.09c-0.364-0.258-0.708-0.98-0.997-0.985
		c-0.545-0.01-0.468,0.375,0.293,0.559c0.952,1.117,2.416,1.342,3.446,2.266c3.741,2.379,6.39,6.094,10.316,8.22
		c4.007,1.834,7.308,4.509,9.298,8.465c1.71,3.4,4.897,7.098,1.32,10.766c-3.57,3.66-7.251,0.969-10.633-1.123
		c-1.301-1.181-2.544-2.44-3.848-3.619c-0.526-0.402-0.868-0.949-1.108-1.567c0.126,0.643,0.477,1.155,1.059,1.543
		c1.116,1.312,2.172,2.651,2.957,4.191c1.914,3.654,5.579,5.676,8.098,8.741c2.069,2.517,5.03,5.235,2.11,8.656
		c-2.236,2.62-5.379,2.087-8.178,0.347c-1.133-0.704-2.249-1.409-3.564-1.718c-5.336-1.314-9.733-4.987-15.17-6.043
		c-1.319-1.172-2.911-1.84-4.548-2.408c-1.575-1.675-3.813-1.248-5.68-1.761c-0.494-0.148-0.887-0.51-1.033-1.027
		c0.08,0.028-0.464,0.459-0.401,0.538c0.708-0.269,1.195-0.115,1.58,0.574c1.555,0.531,3.284,0.035,4.654,1.104
		c1.318,1.238,3.296,1.193,4.63,2.397c5.121,1.799,9.742,4.752,14.926,6.411c9.396,4.659,20.059,7.457,25.724,17.575
		c-0.018,1.686-0.941,2.647-2.49,3.104c-12.891-2.805-24.025-10.084-36.444-14.084c7.171,6.449,15.118,11.787,23.767,16.382
		c11.935,6.342,22.24,14.995,31.127,25.224c1.733,1.994,3.814,4.474,1.667,7.135c-1.799,2.231-4.368,0.711-6.496-0.088
		c-3.773-1.418-7.225-3.549-12.493-5.824c4.197,6.158,7.225,11.397,10.252,16.65c2.494,4.328,5.837,6.743,10.663,8.366
		c9.685,3.258,18.116,8.601,22.832,18.305c1.692,2.059,3.064,4.539,5.131,6.101c7.961,6.016,5.126,15.606,7.922,23.306
		c1.003,2.763-0.77,5.159-4.558,4.482c-1.494-0.267-2.86-1.959-4.735-0.454c-0.843,3.892,2.606,5.683,4.357,8.272
		c2.981,4.408,6.384,8.549,8.159,13.676c1.153,3.331,0.412,5.107-3.519,4.616c-3.472-0.434-7.166,0.372-10.158-2.4
		c-0.972-0.9-2.451-0.93-3.573,0.238c-2.818-1.261-6.136-3.436-5.129,2.639c0.27,1.628,1.097,3.221,1.091,4.828
		c-0.015,3.734-2.507,5.326-6.024,3.81c-2.366-1.02-4.52-2.532-6.812-3.849c-1.835,3.399,1.14,5.925,0.941,8.927
		c-0.324,4.882-1.812,5.755-7.872,4.035c-2.45-1.051-3.097-0.246-2.205,2.143c2.246,8.669,6.354,16.915,6.13,26.125
		c-0.508,0.165-0.851,0.405-1.142,0.354c-11.837-2.103-11.836-2.106-10.725,9.619C562.283,572.622,563.293,574.861,559.398,574.625z
		"/>
	<path fill="#B2603B" d="M529.177,342.28c3.303,0.815,6.483,6.079,9.495,2.753c3.617-3.994-1.337-7.614-3.376-11.045
		c-1.674-2.816-4.992-4.383-6.274-7.597l-0.011,0.01c4.638-0.348,4.628-2.906,2.804-6.131c-4.671-8.26-11.438-14.743-18.713-20.541
		c-8.304-6.617-16.909-12.914-26.396-17.839c-0.628-0.419-0.853-0.858-0.676-1.32c0.181-0.472,0.37-0.708,0.569-0.708
		c12.393,2.525,23.28,9.062,36.697,14.789c-3.997-5.667-7.453-8.556-11.26-11.259c-15.735-11.173-33.041-18.862-51.677-23.587
		c-5.329-1.351-10.012-3.616-14.022-7.333c5.684-3.329,12.028-4.077,18.346-3.766c3.937,0.194,7.398-0.155,10.314-2.723
		c7.262-6.397,15.512-6.896,24.338-4.424c3.607,1.01,7.262,1.929,10.655-0.445c7.662-5.362,15.301-2.652,22.976-0.133
		c7.982,2.62,13.823,8.982,21.796,12.043c4.323,1.66,6.62,8.111,9.047,12.92c5.948,11.786,6.567,24.409,5.845,37.246
		c-0.135,2.411-0.637,4.794-2.265,6.534c-4.423,4.725-2.978,9.523-1.026,14.756c2.2,5.898,5.854,11.451,5.354,18.136
		c-0.229,3.063,1.626,4.135,4.064,4.727c5.085,1.235,9.759,3.454,15.532,2.266c6.65-1.369,8.79,0.525,11.405,6.87
		c3.208,7.785,5.162,15.814,5.433,24.332c0.296,9.31,2.106,18.499,0.135,27.94c-0.959,4.594-1.847,9.07-3.553,13.47
		c-2.443,6.301-2.501,13.023-2.834,19.709c-0.263,5.279-0.241,11.195-7.697,12.092c-5.42-3.966-9.713-9.333-15.675-12.627
		c-2.051-1.133-4.173-3.343-6.141-3.213c-8.452,0.561-11.367-5.234-14.66-11.227c-3.505-6.378-7.536-12.467-12.068-19.876
		c8.998,1.382,14.945,6.878,22.172,8.915c2.118-2.618-0.28-3.849-1.42-5.08c-9.9-10.685-21.096-19.845-34.161-26.311
		c-10.141-5.019-18.427-12.106-25.833-20.769c14.868,4.173,28.966,10.227,42.713,17.181c0.889,0.513,1.798,0.766,2.444-0.287
		c0.359-0.586,0.119-1.248-0.414-1.798c-7.934-6.579-16.664-11.909-25.862-16.507c-0.618-1.788-0.282-2.661,1.792-1.869
		c3.687-0.083,7.097,4.135,11.449,0.468c-1.554-4.568-5.206-7.365-8.884-9.971c-2.321-1.645-4.271-3.086-3.038-6.279
		C526.255,342.695,527.067,341.821,529.177,342.28z"/>
	<path fill="#6D6964" d="M807.669,833.041c7.405,6.236,14.811,12.472,22.664,19.085c-3.978,2.121-5.894-1.024-8.413-0.95
		c-2.345-0.785-4.866-1.159-6.779-2.92c-0.752-0.115-0.803-0.75-0.95-1.316c-0.52,0.502-0.335,0.884,0.561,1.151
		c2.162,1.246,3.806,2.981,4.968,5.178c1.126,1.668,2.508,3.22,3.324,5.028c1.498,3.318,1.184,6.515-3.353,5.91
		c-4.588-0.612-3.816,3.041-4.618,5.01c-1.012,2.487,3.757,7.822-3.9,6.947c-1.194-0.137-0.377,2.185-0.363,3.439
		c0.077,6.607-1.37,8.25-7.524,9.462c-7.53,1.483-14.753-0.544-21.894-2.191c-7.863-1.814-15.413-2.884-23.707-2.192
		c-9.907,0.826-19.962-1.848-29.781-4.004c-3.678-0.807-7.292-1.118-10.984-1.013c-20.176,0.571-40.371,0.372-60.487-0.867
		c-10.044-0.618-20.106-0.888-30.148-1.527c-3.76-0.239-7.306-1.168-10.755-2.442c-1.832-0.676-3.317-2.241-5.097-3.126
		c-3.53-1.754,0.927-6.899-3.751-8.259c-3.189-0.927-6.22-2.432-9.264-3.807c-0.947-0.427-1.341-1.41-0.623-3.318
		c15.966-3.029,32.546-3.335,49.188-2.767c2.626,1.606,5.585-0.126,8.266,0.822c0.823-0.075,1.219,1.156,2.17,0.732
		c-0.479-0.215-1.163,0.059-1.466-0.612c-2.118-0.26-3.877-1.195-5.335-2.721c-10.331-3.995-19.76-9.822-29.691-14.63
		c-2.108-1.02-5.053-2.101-3.548-4.91c1.391-2.595,4.072-0.955,6.244-0.103c3.112,1.222,6.278,2.305,9.42,3.45
		c4.287,1.563,8.274,3.765,13.311,1.783c2.159-0.849,5.214,0.426,7.829,0.913c16.414,3.057,32.819,6.165,49.227,9.256
		c1.757,0.787,3.685,0.188,5.409,0.67c-0.07-0.004,0.648-0.033,0.648-0.033s-0.718-0.114-0.747-0.116
		c-1.505-0.39-2.368-1.488-3.146-2.686c-12.657-6.606-22.232-17.261-33.593-25.57c-1.427-1.044-2.645-2.457-2.017-4.224
		c0.731-2.058,2.632-3.025,4.81-2.984c3.361,0.063,6.604,0.821,9.898,1.552c13.086,2.905,25.851,7.206,39.181,9.039
		c0.955-0.152,1.119-0.597,0.516-1.355c-0.305-0.383-0.542-0.593-0.756-0.593c-12.666-8.903-25.281-17.858-33.563-31.446
		c-0.694-1.139-1.699-2.104-2.29-3.285c-0.859-1.716-0.27-3.329,1.132-4.479c1.701-1.395,3.175-0.557,4.173,0.987
		c4.923,7.611,12.596,11.952,19.891,16.693c4.916,3.195,9.63,5.61,16.273,6.003c7.665,0.453,15.093,5.139,22.594,8.064
		c4.681,1.826,9.306,3.795,13.956,5.7c4.663-0.071,8.132,2.909,12.057,4.712c1.123,0.59,2.039,1.443,2.864,2.293
		c0.343,0.293,0.673,1.074,0.921,1.07c0.555-0.01,0.471-0.405-0.288-0.638c-1.174-1.37-2.344-2.642-4.149-3.071
		c-3.11-2.126-7.017-3.185-8.983-6.803c-9.122-7.583-18.57-14.811-25.315-24.848c-1.494-2.223-3.315-4.132-2.724-7.077
		c4.102-3.307,7.507-0.634,10.887,1.379c6.076,3.618,11.481,8.205,17.287,12.203c3.647,2.538,7.139,5.3,10.774,7.858
		c0.733,0.449,1.425,0.96,2.099,1.49c0.676,0.503,1.31,1.063,1.924,1.638c0.307,0.276,0.6,0.576,0.909,0.853
		c1.712,1.772,3.59,3.343,5.726,4.606c0.733,0.431,1.411,0.929,2.08,1.45c0.696,0.514,1.341,1.08,1.979,1.663
		c0.329,0.29,0.635,0.597,0.964,0.885C797.929,824.255,805.184,826.275,807.669,833.041z"/>
	<path fill="#F4C4BA" d="M91.088,427.353c0.636,10.972,4.798,20.916,10.433,29.96c4.042,6.487,3,11.855,0.099,17.882
		c-2.042,4.241-4.752,3.988-8.126,1.811c-2.372-1.531-3.553-3.996-5.085-6.171c-7.76-11.02-13.906-22.983-19.918-34.988
		c-4.398-8.783-6.456-18.792-6.907-28.098c-0.342-7.064,1.013-15.41,3.191-22.385c2.301-7.368,3.237-14.973,5.607-22.246
		c2.633-8.079,2.748-17.457,12.517-21.628c1.619-0.691,2.342-3.934,3.088-6.13c2.13-6.273,7.279-7.664,12.837-7.598
		c5.239,0.062,8.83,2.849,9.054,9.301c10.016-4.651,19.204-9.639,29.897-9.925c1.987-0.053,3.902-0.407,5.952-0.051
		c11.788,2.049,15.976,8.516,12.68,20.07c-2.553,8.947-7.459,16.582-14.258,22.785c-7.925,7.231-15.936,14.487-25.514,19.543
		c-4.533,2.393-6.217,4.891-4.153,10.22c2.529,6.528,4.65,13.339,4.981,20.469c0.118,2.543,1.065,4.944,2.923,6.175
		c6.01,3.979,9.189,10.777,15.066,14.75c6.322,4.274,8.069,10.389,7.809,17.481c-0.215,5.871-2.499,7.724-8.267,7.147
		c-2.139-0.214-3.834-1.21-5.507-2.282c-14.221-9.117-27.667-19.069-36.388-34.078c-0.451-0.777-1.437-1.243-2.174-1.854
		C90.928,427.512,91.088,427.353,91.088,427.353z"/>
	<path fill="#8E8B87" d="M334.154,891.168c1.748-4.179,3.217-7.544,4.568-10.956c1.692-4.272,4.846-7.341,8.614-9.566
		c4.666-2.755,8.102-1.081,10.261,3.941c2.112,4.913,0.939,10.328,2.337,16.694c6.322-8.715,7.606-17.718,9.132-26.451
		c1.068-6.115,4.793-9.453,9.625-11.973c6.132-3.198,9.619-1.648,10.98,5.125c1.282,6.383,1.77,12.926,2.73,20.342
		c4.99-10.888,3.912-21.551,3.508-32.066c5.305-0.639,4.394,4.88,7.844,6.322c3.134-2.741,1.45-6.597,1.846-9.912
		c0.629-5.258,3.775-8.587,8.865-9.143c3.563-0.389,4.656,2.224,5.499,4.764c2.87,8.646,4.955,17.49,3.213,26.623
		c-0.653,3.421-0.488,6.487,0.135,9.855c1.161,6.275,1.453,12.68,0.502,19.055c-2.184,14.646-11.591,21.144-26.243,18.484
		c-6.375-1.158-13.285-3.588-17.665,4.207c-0.283,0.503-1.205,1.113-1.644,0.993c-8.612-2.348-19.159,2.91-26.012-5.825
		c-4.798-6.115-10.737-9.355-18.265-10.417c-1.228,4.805-2.243,9.688-3.751,14.414c-1.397,4.374-4.362,6.995-9.203,4.949
		c-4.12-1.741-7.897-2.117-12.368-0.802c-3.466,1.019-7.033-0.865-10.371-2.842c-5.218-3.091-10.425-5.243-15.865,0.785
		c-3.604,3.993-8.658,0.969-11.936-1.198c-6.446-4.26-15.004-7.271-14.729-17.433c0.015-0.569-0.522-1.239-0.959-1.72
		c-3.738-4.125-7.388-9.354-5.539-14.396c3.049-8.312,5.517-17.08,12.17-23.913c6.23-6.399,13.55-6.518,21.349-6.078
		c1.781,0.101,3.333,0.88,3.929,2.63c1.402,4.111,5.501,5.55,8,8.41c4.526,5.179,7.658,10.996,15.703,12.46
		c3.479,0.633,5.235,6.568,7.212,10.466c1.096,2.161,2.188,4.207,5.288,2.714C326.688,887.894,330.024,890.701,334.154,891.168z"/>
	<path fill="#8E8B87" d="M250.14,702.181c1.798,9.121,4.024,18.127,5.29,27.396c0.863,6.314-0.241,11.727-2.806,17.69
		c-5.456-14.792-10.769-29.545-18.634-43.155c-5.199-3.716-5.451-10.335-8.862-15.096c-1.67-3.068-2.575-6.55-4.953-9.24
		c-0.941-1.009-1.017-2.283-1.087-3.556c-1.54-2.958-2.961-5.989-5.034-8.648c-0.751-0.866-0.885-2.004-1.286-2.865
		c0.07,0.125,0.029,0.097,0.075,0.204c0.326,1.311,0.889,2.372,1.672,3.344c1.689,2.342,2.626,5.089,4.232,7.461
		c0.294,1.703,0.626,3.388,1.886,4.705c2.153,2.919,2.94,6.522,4.83,9.573c3.186,5.74,5.758,11.695,6.533,18.292
		c5.967,18.002,12.771,35.733,17.379,54.175c0.651,2.606,1.287,5.161,1.166,7.858c0.439,2.392,2.851,5.403-1.932,6.158
		c-13.033-37.654-29.543-73.898-45.001-110.564c-4.805-11.398-10.552-22.406-16.046-33.504c-1.485-2.999-2.134-5.064,2.232-5.346
		c0.535,0.729,0.967,1.513,1.285,2.357c1.036,1.492,2.763,2.454,3.443,4.653c-0.284-1.9-1.672-2.604-2.481-3.715
		c-0.928-0.97-1.381-2.286-2.35-3.225c-7.208-13.389-17.279-24.637-27.068-36.086c-2.833-3.314-5.895-6.431-8.843-9.647
		c-1.374-1.499-2.894-3.097-1.902-5.292c1.051-2.323,3.17-3.295,5.678-3.541c4.07-0.399,7.043,1.885,9.963,4.12
		c12.055,9.228,22.568,20.091,32.092,31.82c4.104,5.055,9.653,8.292,13.879,13.061c1.564,1.765,3.341,1.561,5.399,0.487
		c5.108-2.668,8.972-0.214,12.482,3.39c2.341,2.404,4.694,4.805,7.158,7.081c1.454,1.343,3.238,3.586,4.695,3.454
		c6.74-0.611,10.644,3.928,14.414,7.858c18.301,19.076,32.491,40.849,41.597,65.787c0.743,2.165-0.278,2.606-2.158,2.207
		c-8.309-11.942-16.618-23.885-24.926-35.827c-2.211-1.919-4.133-4.12-6.112-6.268c-0.715-1.878-1.622-3.634-3.078-4.934
		c-0.389-0.206-0.672-0.604-0.799-1.104c-0.017,0.021-0.061,0.746-0.01,0.801c0.638,0.379,1.138,0.805,1.591,1.375
		c1.579,1.567,1.603,4.046,3.412,5.389c2.27,1.584,2.478,4.212,3.281,6.543c4.665,10.41,9.415,20.782,13.947,31.25
		c1.574,3.636,3.473,7.365,1.664,12.603c-12.328-19.395-24.074-38.379-37.733-56.04c-4.33-1.811-4.902-6.831-8.159-9.553
		c-1.108-2.088-2.019-4.295-3.521-6.143c-0.577-0.681-1.109-1.433-1.915-1.868c0.016,0.02,0.337-0.696,0.337-0.696
		s-0.084,0.779-0.072,0.805c0.709,0.7,1.409,1.371,1.959,2.209c1.732,2.198,2.035,5.233,4.292,7.091
		c2.4,3.066,4.056,6.49,4.994,10.262c3.651,8.588,7.205,17.219,10.986,25.749c2.464,5.558,3.209,11.527,4.615,17.338
		c0.423,1.747-0.252,3.274-2.409,4.195c-2.037-5.181-3.793-10.503-6.949-15.144c-1.587-1.012-2.1-2.851-3.208-4.176
		c-0.507-1.201,0.981-1.154-0.273-0.666c-0.121,0.047-0.083,0.337,0.114,0.869c0.183,0.493,0.343,0.739,0.502,0.77
		C250.58,698.448,249.073,700.435,250.14,702.181z"/>
	<path fill="#6D6964" d="M510.409,883.982c0.91,13.848,5.049,26.74,11.022,39.208c3.784,7.897,6.146,16.286,6.213,25.208
		c0.031,4.134,0.894,8.455-5.528,8.179c-2.066-0.089-2.361,1.61-3.002,3.277c5.213-13.572-14.448,5.687-13.971,5.94
		c-4.999-2.645-10.001-3.158-15.167-4.441c-13.33-3.31-24.408-10.682-28.077-25.539c-2.562-10.373-3.526-21.201-8.579-30.895
		c-0.997-1.912-0.933-4.016,0.443-5.71c4.099-5.044,9.259-9.374,15.236-11.146c5.434-1.611,11.89-2.36,16.547,3.559
		c1.725,2.192,4.886,1.778,8.456,1.195c-4.547-9.74-9.572-19.028-12.503-29.174c-1.86-6.437-4.313-12.705-6.096-19.16
		c-0.803-2.906-3.143-6.413,1.067-8.886c3.012,3.005,5.057,6.682,7.16,10.3c0.702,0.422,0.845,0.93,0.424,1.509
		c0.135,0.068,0.262,0.078,0.29-0.002c0.366-1.022-0.905-1.28-0.994-2.107c-1.143-4.385-6.962-6.776-5.24-12.361
		c2.092-2.386,3.921-1.661,5.843,0.333c4.64,4.812,8.995,9.861,11.956,15.886c1.932,3.931,3.474,6.787,8.886,4.173
		c4.322-2.088,7.494,1.11,9.728,4.795c4.742,7.822,7.196,16.397,8.057,25.427c0.205,2.152,0.935,5.106-2.01,6.023
		c-2.784,0.867-3.998-1.67-5.325-3.563c-0.955-1.362-1.927-2.713-2.892-4.068C509.698,880.707,510.203,882.487,510.409,883.982z"/>
	<path fill="#6D6964" d="M809.793,790.52c-3.362-5.229-8.944-9.02-10.484-15.355c1.998-2.204,3.414-0.647,4.469,0.261
		c23.085,19.867,45.245,40.727,66.636,62.403c0.874,0.886,1.275,2.238,1.896,3.373c-0.531,0.971-1.351,1.258-2.391,1.02
		c-0.691-0.072-1.137-0.446-1.321-1.116c0.013,0.002-0.007,0.906,0.014,0.908c0.706-0.075,1.274,0.147,1.743,0.674
		c0.906,0.636,1.401,1.478,1.419,2.581c2.692,4.856,8.616,7.25,10.409,12.873c-2.982,2.068-5.447,1.053-7.867-0.075
		c-3.929-1.831-7.896-3.598-11.726-5.619c-7.293-3.848-14.073-8.004-23.181-7.675c-6.43,0.232-12.633-3.764-18.343-7.352
		c-3.664-2.303-7.502-4.33-11.262-6.481c-7.476-1.931-12.35-7.854-18.394-11.983l0.111,0.099c-0.691-0.728-1.401-1.437-2.127-2.13
		l0.103,0.091c-2.841-1.884-5.266-4.323-8.169-6.125l0.099,0.089c-0.691-0.729-1.402-1.438-2.128-2.131l0.107,0.097
		c-4.208-2.546-6.999-6.868-11.441-9.124c-7.427-6.655-17.141-10.558-22.986-19.112c3.33-4.932,7.899-2.219,11.702-1.413
		c12.44,2.638,24.235,7.341,35.196,13.714c5.541,3.222,10.313,3.559,15.48,0.009c5.42,0.179,7.75,5.267,11.886,7.483
		c0.997,0.799,1.849,1.759,2.785,2.517c1.036,0.739-0.497-0.416,0.587,0.382c-0.176-0.08-0.329-0.198-0.557-0.34
		c-0.923-0.793-1.692-1.639-2.57-2.39C815.704,797.802,811.905,794.966,809.793,790.52z"/>
	<path fill="#8F8C88" d="M274.703,639.402c0.201-5.718,4.057-6.689,8.373-5.622c3.85,0.952,7.627,2.661,11.092,4.64
		c33.597,19.181,58.141,47.06,76.693,80.562c1.784,3.221,4.58,6.907,0.719,10.746c-8.135-5.146-11.415-14.811-19.039-20.417
		c-0.605-0.572-1.164-1.202-1.708-1.829c-0.558-0.574-1.082-1.195-1.604-1.805c-0.268-0.286-0.52-0.598-0.788-0.887
		c-0.541-0.567-1.035-1.181-1.511-1.808c-0.229-0.316-0.44-0.647-0.672-0.966c-0.444-0.657-0.848-1.337-1.263-2.011
		c-0.745-0.997-1.587-1.903-2.477-2.782c-7.235-6.988-14.289-14.138-21.392-21.23c-0.975-0.848-1.98-1.668-3.064-2.386
		c-0.371-0.219-0.723-0.465-1.092-0.688c-0.364-0.235-0.71-0.492-1.074-0.73c-0.723-0.499-1.391-1.062-2.05-1.645
		c-0.337-0.291-0.651-0.599-0.992-0.891c-0.691-0.594-1.332-1.23-1.972-1.876c-9.935-10.738-21.544-19.268-34.368-26.213
		c-0.362-0.308-0.711-0.63-1.068-0.946C275.194,640.218,274.948,639.81,274.703,639.402z"/>
	<path fill="#908D89" d="M371.284,732.497c0.063,1.262,0.126,2.525,0.19,3.787c0,0,0.112-0.115,0.112-0.115
		c-4.341-0.027-6.151-3.738-8.625-6.232c-24.757-24.956-50.186-49.198-76.621-72.371c-6.973-6.113-14.261-11.865-21.63-17.969
		c3.728-4.869,6.852,0.576,9.992-0.196c0,0-0.134-0.14-0.134-0.14c0.982,0.963,2.32,1.394,3.373,2.253
		c12.781,7.378,24.52,16.105,34.76,26.777c0.849,0.352,1.638,0.809,2.368,1.368l-0.126-0.12c0.699,0.732,1.415,1.447,2.147,2.147
		l-0.132-0.12c0.916,0.825,2.126,1.245,2.979,2.163c0.879,0.953,1.921,1.729,2.825,2.667c6.603,6.606,13.204,13.2,19.794,19.791
		c0.926,0.886,1.699,1.929,2.645,2.799c0.915,0.85,1.331,2.069,2.165,2.987l-0.119-0.13c0.698,0.73,1.412,1.444,2.143,2.141
		l-0.118-0.118c0.693,0.729,1.403,1.441,2.135,2.131l-0.103-0.116C358.26,714.533,366.62,722.128,371.284,732.497z"/>
	<path fill="#918E8A" d="M217.751,496.371c1.323,3.077,2.711,6.128,3.95,9.238c1.31,3.288,0.285,6.513-2.548,7.868
		c-2.421,1.158-3.919-1.891-5.314-3.693c-10.267-13.26-19.29-27.376-28.988-41.677c6.362-2.164,8.401,4.627,12.376,5.156
		c5.118,0.682,6.935,4.997,10.685,6.918c3.228,1.69,5.114,4.696,7.306,7.411C217.193,490.192,217.222,493.353,217.751,496.371z"/>
	<path fill="#938F8B" d="M200.043,522.152c-13.923-24.438-28.163-48.667-47.117-70.677c3.818-1.681,5.688,0.522,7.349,2.074
		c6.621,6.187,13.239,12.416,18.401,19.947c9.898,14.443,18.453,29.576,23.498,46.478
		C202.948,522.152,201.909,522.556,200.043,522.152z"/>
	<path fill="#96928E" d="M210.268,477.964c3.443-1.245,5.352,0.594,7.39,3.13c4.585,5.706,7.69,12.184,10.658,18.771
		c0.813,1.975,1.973,4.111-1.827,3.953c-2.268-3.199-4.536-6.399-6.804-9.599c-2.057-1.749-4.11-3.503-4.772-6.31
		C213.337,484.606,207.243,483.412,210.268,477.964z"/>
	<path fill="#8E8B86" d="M417.738,457.801c3.01,6.924,5.693,14.017,10.377,20.076c0.293,0.3,0.586,0.599,0.882,0.897
		c0.563,1.189,0.552,2.412,0.21,3.651c-0.15,1.238-0.215,2.458,0.793,3.432c1.275,4.399,5.101,7.896,4.57,13.397
		c-3.19,0.032-4.438-2.562-5.798-4.488c-16.039-22.721-34.201-43.747-51.816-65.211c-1.696-2.067-3.136-4.343-4.805-6.434
		c-1.958-2.452-3.908-5.196-2.102-8.18c1.848-3.053,5.253-4.019,8.814-3.611c1.613,0.185,3.184,0.74,5.78,1.371
		c-1.592-4.018-4.837-5.798-6.805-8.496c-0.954-1.308-2.29-2.788-0.767-4.385c1.283-1.346,3.303-1.332,4.682-0.468
		c2.234,1.398,4.316,3.151,6.153,5.052c9.839,10.184,17.123,22.245,24.654,34.105c2.687,4.231,5.007,8.694,7.495,13.051
		c-3.43,6.242-3.701-1.97-5.819-1.323C416.582,452.185,416.955,455.091,417.738,457.801z"/>
	<path fill="#8F8A84" d="M428.115,477.877c6.583-8.458,12.008-8.46,17.433,0.79c7.166,12.217,12.063,25.459,14.619,39.4
		c0.638,3.479,2.692,6.942,1.399,11.074c-3.729,0.285-4.037-2.974-5.02-4.999c-6.466-13.323-14.074-25.96-22.404-38.181
		c-1.132-1.661-2.087-3.47-4.145-4.206c-0.252-0.29-0.504-0.58-0.758-0.869c-0.148-1.137-0.273-2.285-1.204-3.121L428.115,477.877z"
		/>
	<path opacity="0.2" fill="#04043A" d="M1089.741,571.68c-4.252-8.752-8.75-17.397-12.604-26.321
		c-1.134-2.625-5.423-5.123-0.813-9.451c1.808-1.697-1.869-6.68-4.127-9.586c-8.011-10.311-16.085-20.574-24.294-30.727
		c-1.881-2.326-4.693-3.945-2.568-7.608c1.614-2.782-0.984-4.348-2.332-6.037c-8.15-10.209-16.426-20.317-24.654-30.464
		c-0.991-1.223-1.941-2.479-2.48-4.08c10.216,5.961,17.974,14.687,25.56,23.243c27.479,30.992,51.983,64.066,69.96,101.714
		c9.889,20.711,15.728,42.555,21.342,64.616c4.232,16.628,6.346,33.515,7.505,50.508c0.494,7.247-0.232,14.872-2.015,21.917
		c-3.316,13.106-3.243,26.538-5.19,39.756c-2.803,19.031-8.047,37.339-15.31,55.095c-1.213,2.965-2.008,6.48-6.459,6.759
		c-3.431,0.215-3.361,3.757-4.525,5.981c-3.414,6.524-6.104,13.583-13.832,16.487c-2.527,0.95-2.882,3.609-3.992,5.594
		c-3.785,6.766-8.054,13.202-13.036,19.121c-3.374,4.009-6.173,9.071-12.841,8.211c-2.338-0.301-3.299,1.974-4.579,3.475
		c-2.395,2.81-4.719,5.684-7.198,8.418c-6.167,6.799-7.841,7.154-16.232,3.693c-2.689,4.572-5.16,9.317-8.145,13.712
		c-3.787,5.575-6.861,5.885-10.864,0.41c-2.4-3.282-3.36-3.641-7.479-2.285c-3.302,1.087-7.552,3.377-11.371,1.858
		c-7.4-2.944-11.221,0.823-14.482,6.587c-0.98,1.732-2.354,3.298-3.772,4.717c-5.747,5.752-10.43,5.015-14.255-2.064
		c-0.817-1.512-1.839-3.078-0.829-4.647c1.221-1.898,2.895-1.045,4.309,0.007c3.441,2.562,4.05-1.062,4.967-2.609
		c10.083-17.027,16.396-35.221,16.434-55.253c0.002-1.333-0.147-2.666-0.164-3.999c-0.002-0.174,0.368-0.352,1.036-0.949
		c5.698,3.161,6.037,9.024,6.572,14.446c0.493,4.997,0.095,10.083,0.089,15.129c-2.522,4.684-2.472,9.814-3.017,14.902
		c2.186-3.426,5.342-6.234,5.202-10.532c7.366-19.316,7.522-24.809,3.639-37.407c5.467,2.713,5.467,2.713,8.824,11.156
		c-0.292,3.759-0.377,7.504,0.983,13.008c0.964-5.528,1.627-9.326,2.289-13.124c1.344-5.222,0.863-10.638,1.714-15.957
		c0.759-4.746-0.691-9.705-4.834-13.098c2.11-1.94,6.126,0.367,6.505-2.289c1.167-8.17,6.674-7.784,13.033-6.676
		c-0.653-14.379-1.244-28.061-3.99-41.563c-1.199-5.895-4.699-10.296-9.268-13.88c-10.897-8.546-23.162-13.377-37.174-13.264
		c-3.553,0.029-7.106,0.004-10.782-0.815c6.271-5.838,14.146-6.573,21.954-7.759c0.59-3.717-4.73-3.337-4.769-6.93
		c0.084-1.092,1.153-1.398,2.101-1.124c9.356,2.704,18.551,5.888,27.172,10.466c8.441,4.482,15.904,10.386,20.581,18.774
		c12.176,21.844,22.16,44.396,18.811,70.445c-0.243,1.893-1.058,3.906,1.231,6.052c10.355-18.133,6.864-37.345,5.591-56.363
		c1.828,0.468,2.457,2.07,3.342,3.419c1.52,3.254,0.663,7.49,4.107,9.951c-0.004,5.519-0.004,11.034-0.004,16.549
		c0.428-5.482,3.44-11.094-0.162-16.415c0.375-5.527,1.64-11.164-1.978-16.204c-2.616-6.255-2.688-6.887,3.082-7.541
		c3.84-0.435,3.459-1.992,2.958-4.399c-1.498-7.196-3.655-14.164-6.989-20.757c-1.005-1.987-3.087-3.619-2.498-6.185
		c2.369-2.797,4.921,0.787,7.027-0.188c1.175-0.922,0.962-1.878,0.849-2.866c-0.32-2.814-2.336-4.731-3.612-7.04
		c-0.815-1.474-1.986-3.78-0.794-4.624c6.35-4.495,0.864-8.246-0.437-12.246c-0.203-0.625-0.613-1.182-0.924-1.771
		c-0.791-1.501-1.624-3.243-0.396-4.635c1.539-1.744,3.625-1.263,5.445-0.182c0.847,0.503,1.53,1.281,2.287,1.934
		c3.956,8.675,7.912,17.351,11.868,26.027c-1.082-9.302-3.044-18.204-7.754-26.213c-1.609-4.026-3.147-8.084-4.857-12.067
		c-0.912-2.124-2.99-4.792-0.421-6.222c3.151-1.753,4.541,1.654,5.867,3.878c1.714,2.876,3.485,5.761,4.784,8.832
		c2.344,5.542,4.991,11.077,6.336,16.887c1.435,6.199,4.713,6.356,10.102,4.359c-2.666-10.157-7.389-19.595-11.597-29.225
		c-9.811-22.454-20.34-44.5-36.099-63.577c-1.064-1.288-2.05-2.646-3.159-3.894c-5.013-5.642-5.024-5.632-2.773-14.11
		c18.954,21.919,35.553,44.732,47.038,70.991c-4.209,4.838,0.239,8.16,1.736,12.658c2.382-3.829-1.54-9.245,4.293-10.879
		c0,0,0.779-0.257,0.777-0.256c2.28,0.158,4.591,0.598,6.831,0.362c1.228-0.129,1.194-1.3-0.157-1.837
		c-5.054-23.772-12.129-46.852-23.463-68.472c0.256-1.518,1.004-2.444,2.693-2.237c2.88,4.242,5.76,8.485,8.64,12.726
		c0.769,1.549,1.538,3.1,2.307,4.65c0.448,0.94,0.897,1.881,1.345,2.821c4.885,11.841,9.77,23.681,14.654,35.522
		c-2.078-14.002-6.171-27.209-12.784-39.534c0.074-0.456-0.103-0.771-0.531-0.945c-0.12-2.272-1.227-4.151-2.388-6.01
		c-6.774-18.156-16.225-35.042-24.956-52.411c6.201,3.372,10.088,9.062,14.991,13.638c-0.099,0.62,0.104,1.117,0.607,1.492
		c1.82,4.63,5.144,8.255,8.11,12.108c0-0.011,0.257,0.11,0.257,0.11l-0.39-0.128c-0.352-5.403-2.931-9.904-5.789-14.292
		C1090.36,572.17,1090.175,571.853,1089.741,571.68z M1088.766,729.071c-1.809,5.47,1.287,10.222,2.543,15.861
		C1093.191,738.972,1090.379,734.232,1088.766,729.071z M1050.79,493.114c-0.816-1.855-1.772-3.702-3.954-4.056
		c-0.668-0.109-1.741,0.772-1.454,1.888c0.435,1.695,1.568,2.837,3.236,3.429C1049.853,494.812,1050.161,493.687,1050.79,493.114z"
		/>
	<path opacity="0.2" fill="#04043A" d="M522.907,332.522c-4.016-2.405-8.018-4.832-12.052-7.206
		c-2.639-1.553-5.562-2.825-3.741-6.869c1.215-2.699-1.354-3.373-2.804-4.468c-4.154-3.138-8.4-6.155-12.796-9.355
		c3.487-4.056,7.729-1.116,11.206-3.534c-4.4-2.634-8.603-5.15-13.332-7.981c3.838-3.027,8.079,0.889,11.462-1.474
		c-0.163-3.834-3.189-4.617-5.941-5.712c-4.669-1.857-9.609-3.274-13.86-5.833c-2.013-1.212-9.878,0.461-4.858-6.976
		c1.026-1.52-5.039-1.705-7.451-4.172c13.38-7.422,26.66-10.614,40.701-2.033c7.173,4.384,14.735,8.013,22.908,10.114
		c5.538,1.423,6.924,6.12,8.287,10.475c1.484,4.745,2.601,9.643,3.798,14.478c3.59,14.504,14.251,24.84,21.268,37.301
		c4.108,7.295,8.854,14.232,13.366,21.297c6.422,10.056,9.792,21.2,11.787,32.835c1.041,6.075-0.887,11.949-1.774,17.818
		c-0.591,3.91-3.745,6.371-8.314,4.468c-2.457-1.023-5.052-1.876-7.264-3.304c-19.726-12.729-39.388-25.56-59.047-38.392
		c-1.959-1.279-3.844-2.693-5.647-4.184c-1.581-1.307-3.048-2.877-1.588-5.103c1.269-1.934,3.364-2.455,5.325-1.61
		c5.21,2.246,10.299,4.77,15.437,7.183c0.21,0.42,0.549,0.607,1.017,0.561c2.001,1.59,3.419,4.577,7.181,2.771
		c-1.847-1.668-3.535-3.191-5.223-4.715c-0.025-0.542-0.291-0.91-0.798-1.104c-3.497-5.465,0.04-7.829,6.225-10.151
		c-14.98-6.106-24.443-16.946-36.115-26.739c6.095-1.982,8.636,3.215,12.674,3.595c10.839-0.263,19.778,5.229,29.089,9.794
		C536.396,339.024,529.749,335.612,522.907,332.522z"/>
	<path opacity="0.2" fill="#04043A" d="M851.153,861.452c0.891,2.699,1.987,5.97-2.871,4.259c-3.353-1.18-6.304-3.505-10.403-5.879
		c0.791,7.673-3.923,13.319-2.523,20.422c0.874,4.436-2.321,6.056-6.359,3.492c-4.784-3.037-9.158-6.719-14.281-10.548
		c-1.902,1.607-1.63,5.036-4.358,5.889c-2.524,0.789-4.623-0.455-6.777-1.221c-2.835-1.009-5.53-2.405-8.334-3.509
		c-2.925-1.151-5.875-3.661-7.959,1.612c-1.196,3.026-4.886,1.934-7.245,1.44c-16.804-3.52-34.074-2.671-50.934-5.654
		c-4.974-0.88-10.03,0.389-15.053,0.815c-5.679,0.482-11.427,0.171-17.146,0.169c-1.32,0-3.011-0.219-2.373-1.963
		c0.321-0.876,2.113-1.214,4.088-2.232c-3.913-2.418-8.689-1.332-11.801-4.201c1.32-2.369,3.695-2.585,5.992-3.02
		c10.882-2.059,21.802-3.612,32.909-4.033c8.584-0.325,16.07-2.44,18.763-12.554c1.376-5.169,8.451-7.573,14.554-5.809
		c3.839,1.11,7.476,2.939,11.171,4.52c2.083,0.891,3.924,2.726,6.484,1.443c-3.845-10.579-0.183-15.778,11.122-15.716
		c1.598,0.009,3.085,0.742,4.113-1.441c3.125-6.639,8.055-4.074,12.808-2.277c3.05,1.153,5.16,4.512,8.99,3.821
		c0.001,0-0.155-0.206-0.155-0.206c2.078,2.734,3.708,6.371,8.267,4.098c0,0-0.177-0.087-0.177-0.087
		c-0.73,2.917,0.263,3.737,2.986,2.455c-0.774,1.332-0.57,2.541,0.712,3.349C835.149,845.053,842.543,853.946,851.153,861.452z"/>
	<path opacity="0.2" fill="#04043A" d="M250.716,883.64c-0.992-9.867,4.696-17.536,9.115-24.987
		c4.987-8.408,16.818-7.851,23.799-0.279c2.258,2.449,5.12,4.815,6.219,7.771c3.921,10.558,12.091,17.399,20.054,24.506
		c1.692,1.51,2.992,3.278,5.743,3.575c8.328,0.902,10.103,7.806,11.647,14.251c1.133,4.728-0.434,5.884-5.356,5.538
		c-2.048-0.144-3.808-1.221-5.633-1.634c-4.004-0.906-7.58-2.389-12.434,0.491c-4.819,2.86-11.35,2.553-16.483,6.613
		c-2.243,1.774-5.891-1.903-8.465-4.071c-1.299-1.094-2.377-4.114-4.575-2.052c-5.974,5.606-9.776,0.613-13.511-2.743
		c-5.316-4.776-9.307-10.35-9.235-18.198C251.627,889.533,250.566,886.529,250.716,883.64z"/>
	<path opacity="0.2" fill="#04043A" d="M235.378,696.566c-10.89-16.734-18.401-35.758-30.355-52.022
		c-12.003-16.331-25.562-31.434-39.693-47.37c7.098,0.142,10.421,4.837,14.339,8.073c2.905,2.399,4.846,3.7,8.372,0.995
		c3.133-2.404,6.96-1.871,10.487-0.06c17.397,8.931,32.765,20.836,48.094,32.795c2.609,2.035,3.518,5.107,2.867,8.021
		c-1.36,6.084-3.171,12.084-5.123,18.011c-1.014,3.08-3.402,2.78-5.614,1.114c-2.657-2.002-5.028-4.456-7.874-6.111
		c-2.029-1.18-4.094-0.103-3.703,2.568c0.332,2.271,1.402,4.452,2.274,6.622c3.122,7.766,6.2,15.537,7.904,23.78
		C237.65,694.41,237.932,695.582,235.378,696.566z M217.572,646.175c2.681,3.751,2.751,6.79,6.291,6.83
		C223.802,649.762,221.645,648.625,217.572,646.175z M228.227,657.037c-0.784-1.875-1.927-3.434-4.079-3.664
		c-0.235-0.025-1.478,1.213-0.682,2.438c0.844,1.297,1.035,3.277,3.168,3.099C227.539,658.833,228.17,658.068,228.227,657.037z"/>
	<path fill="#FFB8C4" d="M149.153,487.44c-1.167,7.869-2.483,16.03-9.097,22.25c-6.578,6.186-11.791,7.108-20.007,3.496
		c-5.922-2.603-9.076-7.67-12.423-12.646c-1.185-1.761-1.46-3.997-0.699-5.808c6.648-15.823,20.776-24.851,37.548-18.76
		C149.697,477.869,149.195,482.643,149.153,487.44z"/>
	<path opacity="0.2" fill="#04043A" d="M862.782,859.59c-0.258,1.212-0.516,2.424-0.773,3.636c-1.282,0.06-2.564,0.121-3.845,0.181
		c0,0-0.111-0.041-0.11-0.041c-8.888-8.069-18.183-15.696-26.179-24.727c-2.169-2.45-4.546-4.924-8.04-5.633
		c-0.751-0.766-1.473-0.704-2.17,0.075c0,0,0.177,0.087,0.177,0.088c-1.786-3.321-3.375-7.042-8.268-4.099
		c0,0,0.157,0.206,0.155,0.206c2.103-2.691-0.202-3.326-1.982-4.034c-1.362-0.542-2.523-1.265-2.073-2.808
		c0.564-1.933,2.302-2.264,4.048-1.978c3.731,0.61,6.844,2.721,10.065,4.486c4.093,2.243,7.845,4.844,13.03,4.388
		c2.442-0.215,5.266,1.087,7.549,2.362c9.847,5.496,17.596,13.336,24.073,22.481c0.767,1.083,1.372,2.314,1.861,3.552
		c0.701,1.779,2.108,4.014-0.788,4.863c-0.654,0.191-2.06-2.187-3.12-3.382c-0.409-1.822-1.702-2.443-3.284-1.895
		C862.22,857.619,862.18,858.717,862.782,859.59z"/>
	<path opacity="0.2" fill="#04043A" d="M522.907,332.522c6.842,3.091,13.489,6.502,19.123,11.776
		c-9.311-4.566-18.25-10.057-29.089-9.794C516.142,333.231,519.965,335.089,522.907,332.522z"/>
	<path opacity="0.2" fill="#04043A" d="M1068.175,768.377c3.618,5.04,2.353,10.676,1.978,16.204l0.17-0.137
		c-3.448-2.457-2.591-6.694-4.111-9.948C1068.893,773.107,1067.469,770.4,1068.175,768.377z"/>
	<path opacity="0.2" fill="#04043A" d="M862.782,859.59c-0.603-0.873-0.562-1.971,0.325-2.279c1.581-0.547,2.874,0.073,3.284,1.895
		C865.188,859.334,863.985,859.462,862.782,859.59z"/>
	<path opacity="0.2" fill="#04043A" d="M858.164,863.408c1.282-0.06,2.564-0.121,3.845-0.181
		C860.818,865.22,859.527,865.082,858.164,863.408z"/>
	<path opacity="0.2" fill="#04043A" d="M1070.153,784.581c3.602,5.321,0.591,10.933,0.162,16.415c0-5.515,0-11.03,0.004-16.549
		C1070.323,784.444,1070.153,784.581,1070.153,784.581z"/>
	<path opacity="0.2" fill="#04043A" d="M1096.085,586.924l0.39,0.128c0,0-0.256-0.12-0.257-0.11S1096.085,586.924,1096.085,586.924z
		"/>
	<path opacity="0.2" fill="#04043A" d="M530.955,368.902c1.688,1.524,3.375,3.047,5.223,4.715c-3.762,1.806-5.18-1.181-7.181-2.771
		C529.649,370.199,530.302,369.551,530.955,368.902z"/>
	<path opacity="0.2" fill="#04043A" d="M530.955,368.902c-0.653,0.648-1.306,1.296-1.958,1.944
		c-0.468,0.046-0.807-0.141-1.017-0.561c0.726-0.829,1.451-1.659,2.177-2.488C530.664,367.992,530.93,368.36,530.955,368.902z"/>
	<path opacity="0.2" fill="#04043A" d="M813.574,829.07c4.893-2.943,6.481,0.778,8.268,4.099
		C817.282,835.441,815.652,831.805,813.574,829.07z"/>
	<path opacity="0.2" fill="#04043A" d="M823.834,833.006c0.272,0.843,0.545,1.686,0.816,2.53c-2.723,1.282-3.716,0.462-2.986-2.455
		C822.362,832.302,823.084,832.241,823.834,833.006z"/>
	<path opacity="0.2" fill="#04043A" d="M217.572,646.175c4.073,2.449,6.23,3.587,6.291,6.83
		C220.323,652.966,220.253,649.926,217.572,646.175z"/>
	<path opacity="0.2" fill="#04043A" d="M228.225,657.036c-0.055,1.032-0.686,1.798-1.592,1.873
		c-2.133,0.178-2.324-1.801-3.168-3.099c-0.796-1.224,0.447-2.463,0.682-2.438C226.3,653.603,227.443,655.162,228.225,657.036z"/>
	<path fill="#542206" d="M1032.666,884.315c7.001-4.894,15.026-7.563,21.432-13.056c12.53-10.743,24.548-22.018,34.435-35.283
		c7.626-10.232,14.478-21.039,22.054-31.309c12.619-17.105,17.342-36.974,20.205-57.378c2.988-21.293,4.197-42.737,3.587-64.277
		c-0.974-34.404-3.937-68.32-18.808-100.187c-17.448-37.39-39.263-71.797-66.051-103.264c-32.817-38.55-70.76-71.093-114.617-95.94
		c-35.659-20.202-73.079-37.24-114.652-41.977c-11.657-1.328-23.396-1.921-35.074-3.09c-21.032-2.105-42.162-3.498-62.868-8.147
		c-1.968-0.442-3.984-1.167-5.943-1.068c-16.067,0.807-28.84-7.54-42.057-14.79c-23.588-12.939-47.693-24.731-73.479-32.773
		c-2.707-0.844-5.999-1.258-7.396-5.444c4.979-2.508,9.778-0.391,14.286,0.685c16.722,3.992,32.715,10.185,48.256,17.442
		c10.648,4.972,21.161,10.29,31.433,15.996c12.101,6.722,24.694,8.842,38.552,8.304c14.696-0.57,29.502,0.991,44.226,2.078
		c9.042,0.667,18.053,1.495,27.134,1.61c29.829,0.378,58.31,6.434,86.458,16.842c51.678,19.109,96.585,48.79,136.696,85.568
		c38.817,35.591,72.222,75.945,95.584,123.761c7.225,14.787,14.885,29.346,20.577,44.867c9.148,24.944,12.014,50.814,12.523,77.124
		c0.305,15.784,0.91,31.627,0.835,47.342c-0.112,23.378-1.816,46.938-8.329,69.725c-2.331,8.154-6.294,15.576-10.63,22.788
		c-8.494,14.129-17.826,27.714-27.777,40.838c-12.874,16.98-30.351,27.167-50.609,32.937
		C1046.132,886.095,1039.546,886.016,1032.666,884.315z"/>
	<path fill="#542206" d="M480.246,951.838c0-6.78,0.02-13.429-0.007-20.078c-0.02-5.081,2.15-9.035,6.007-12.217
		c2.037-1.681,4.508-2.21,6.566-0.98c2.791,1.668,1.09,4.331,0.09,6.251c-4.136,7.946-5.1,16.538-5.996,25.787
		c9.362,1.586,18.461,3.176,27.579,4.648c3.529,0.57,4.915-1.435,4.827-4.682c-0.225-8.273,1.362-16.708-4.516-24.172
		c-2.831-3.595-4.173-8.377-6.111-12.658c-2.403-5.308-6.512-8.376-12.152-9.518c-7.239-1.466-14.475-2.946-21.72-4.38
		c-2.276-0.451-4.625-0.675-6.326-3.466c1.696-1.977,4.094-1.436,6.194-1.447c17.811-0.101,35.579,0.839,53.365,1.771
		c21.17,1.11,42.306,0.652,63-5.234c32.686-9.297,65.894-16.54,99.749-19.298c31.215-2.542,62.342-0.296,93.7,8.236
		c-3.652,3.573-7.426,2.345-10.704,2.309c-26.569-0.289-53.057,0.647-79.44,4.067c-30.03,3.892-59.578,10.227-88.711,18.273
		c-28.251,7.803-56.606,10.651-86.714,4.982c1.901,7.021,5.22,12.552,8.389,18.136c3.839,6.764,7.316,13.654,7.667,21.64
		c0.102,2.332,0.334,4.724-0.041,6.999c-2.387,14.473-8.123,18.461-22.302,14.508c-11.752-3.276-23.492-5.739-35.741-4.874
		c-5.295,0.374-10.355-0.963-14.157-4.285c-8.863-7.744-18.062-8.573-28.783-4.244c-6.654,2.687-13.901,1.491-20.741-0.669
		c-16.646-5.257-25.526-18.363-24.71-37.252c-4.824,2.014-9.419,3.724-13.831,5.818c-8.764,4.16-16.297,1.79-23.31-3.958
		c-0.779-0.638-1.481-1.37-2.246-2.027c-2.762-2.373-4.814-6.814-8.648-6.324c-3.835,0.49-2.93,5.447-4.348,8.319
		c-3.27,6.622-10.705,10.329-18.578,8.823c-4.614-0.883-9.14-2.215-13.722-3.276c-4.931-1.142-9.45-1.036-14.656,0.594
		c-8.707,2.727-17.946,2.496-26.225-2.755c-6.518-4.134-13.316-7.873-18.22-14.132c-8.519-10.873-9.045-18.988-1.312-30.315
		c7.004-10.261,14.311-20.315,21.489-30.469c-0.584-2.788-2.59-4.688-4.275-6.724c-11.327-13.688-17.558-29.85-22.201-46.646
		c-3.487-12.613-6.154-25.454-9.137-38.205c-2.688-11.49-6.618-22.52-11.933-33.061c-1.057-2.096-2.017-4.25-2.862-6.439
		c-0.66-1.711-0.372-3.349,1.36-4.333c1.876-1.067,3.234,0.144,4.329,1.403c1.539,1.77,2.899,3.697,4.299,5.584
		c12.839,17.303,19.536,37.045,19.125,58.27c-0.254,13.114,5.153,23.345,11.056,33.65c4.648,8.114,10.375,15.776,16.587,22.785
		c7.858,8.866,14.915,18.206,20.748,28.454c6.226,10.938,14.462,19.132,27.015,22.529c5.488,1.485,10.632,4.22,16.104,5.785
		c8.979,2.568,16.794,6.706,22.701,14.134c3.989,5.016,8.786,6.548,15.181,4.239c9.74-3.517,19.386-7.197,29.936-8.415
		c5.392-0.623,10.364-4.595,14.274-8.938c1.118-1.241,1.791-2.913,2.996-4.037c1.584-1.477,3.663-1.871,5.513-0.481
		c1.414,1.063,1.669,2.602,1.29,4.481c-1.114,5.518-3.792,10.033-8.079,13.599c-3.356,2.792-7.007,5.261-10.156,8.263
		c-7.945,7.574-7.138,15.825,2.222,21.58c9.817,6.036,20.103,3.631,30.255,0.855c2.966-0.811,2.529-3.563,2.626-5.878
		c0.155-3.689,0.123-7.398,0.527-11.06c0.288-2.612,2.052-4.225,4.812-4.2c3.433,0.031,3.297,2.637,3.382,5.012
		c0.024,0.672-0.119,1.38,0.042,2.013c1.216,4.783-4.778,11.603,0.136,13.864C461.951,942.596,467.952,953.528,480.246,951.838z
		 M273.165,905.753c-0.337-4.737-0.676-8.385-0.835-12.042c-0.189-4.34,1.768-7.753,4.966-10.523
		c1.887-1.635,4.221-2.716,6.412-1.325c1.923,1.221,1.379,3.686,0.796,5.573c-1.874,6.067-1.729,12.312-2.699,18.762
		c5.996,1.181,11.12-2.105,16.479-0.375c5.398,1.744,11.088,2.578,16.496,4.294c5.319,1.687,9.261-0.125,13.415-3.288
		c-10.346-8.665-21.998-14.078-32.08-21.693c-10.283-7.766-15.424-20.536-25.587-29.394c-4.838,7.305-6.931,14.784-10.301,21.641
		c-8.436,17.162-8.086,18.048,9.245,27.136C270.31,904.96,271.286,905.137,273.165,905.753z"/>
	<path fill="#542206" d="M418.075,242.297c-19.044,0.561-37.776,1.761-56.604-0.071c-16.668-1.623-33.644-1.237-50.411-0.349
		c-15.737,0.834-31.531,0.836-47.231,2.878c-45.801,5.958-89.31,19.279-129.736,41.53c-19.167,10.55-33.859,26.735-43.903,46.148
		c-13.685,26.45-22.138,54.847-25.156,84.474c-1.973,19.367-1.583,38.923,1.857,58.256c0.887,4.984,1.944,9.993,4.247,14.444
		c9.721,18.788,18.317,38.17,29.928,55.969c7.272,11.148,16.509,20.422,26.799,28.554c13.439,10.622,25.832,22.474,39.764,32.53
		c27.767,20.042,40.549,48.205,43.297,82.922c-4.352-3.667-5.195-8.072-6.704-11.833c-10.666-26.583-27.572-47.971-50.59-65.187
		c-16.648-12.452-32.607-26.001-47.707-40.294c-14.765-13.975-24.728-31.727-33.595-49.955c-1.616-3.321-2.875-6.868-4.858-9.951
		c-13.44-20.885-16.479-44.292-17.325-68.396c-1.319-37.6,6.323-73.389,20.743-107.93c1.417-3.393,2.584-6.93,3.466-10.5
		c3.438-13.906,11.476-24.734,21.68-34.478c20.904-19.96,45.932-32.382,73.062-41.181c35.292-11.446,71.35-19.22,108.456-20.989
		c27.188-1.296,54.433-2.194,81.652-1.251c19.634,0.681,38.341,6.292,56.735,12.856
		C416.762,240.787,417.368,241.682,418.075,242.297z"/>
	<path fill="#542206" d="M874.146,886.371c-4.526-1.035-8.583-1.504-12.282-2.91c-6.554-2.491-11.79-2.875-18.218,2.024
		c-7.352,5.603-16.806,3.188-25.245,0.919c-10.565-2.84-19.431-8.966-27.669-15.995c-0.998-0.852-1.891-1.941-2.509-3.094
		c-0.781-1.458-1.517-3.252-0.447-4.735c1.151-1.595,3.068-1.268,4.569-0.481c2.97,1.558,5.854,3.292,8.709,5.057
		c10.118,6.258,21.337,9.702,32.686,12.774c4.214,1.141,8.515,1.799,12.561-0.872c-1.451-2.93-4.412-3.315-6.504-4.895
		c-1.593-1.204-3.51-2.22-4.599-3.793c-1.544-2.232-2.453-5.193-0.824-7.6c1.452-2.145,4.317-1.765,6.561-1.197
		c2.567,0.65,5.103,1.667,7.445,2.915c5.695,3.033,11.82,4.742,17.997,6.365c2.644,0.695,6.057,1.773,7.845,0.201
		c6.801-5.978,13.968-2.547,21.086-1.755c4.948,0.551,9.387,3.297,14.401,2.018c0.591,5.948-2.546,7.933-6.125,9.215
		c-2.811,1.007-6.061,2.425-8.734,1.858c-6.788-1.438-9.074,2.202-10.359,7.582c-1.461,6.116,0.934,12.036,5.834,14.82
		c5.928,3.368,21.494,0.861,26.17-4.182c2.046-2.207,4.07-4.452,6.296-6.467c0.933-0.845,2.365-1.138,3.479-1.641
		c2.148,1.722,0.697,3.203-0.059,4.416c-2.62,4.207-0.952,5.628,3.332,6.836c9.152,2.58,17.696,1.69,26.063-2.672
		c13.041-6.799,27.188-8.787,41.652-9.363c8.053-0.32,16.097-0.694,23.409-4.802c3.123-1.754,4.429-0.226,4.164,2.932
		c-0.759,9.013-11.844,19.851-20.969,19.962c-10.075,0.123-20.13,0.225-30.163,1.266c-5.527,0.573-9.893,2.179-13.54,7.192
		c-7.253,9.968-13.605,11.606-25.443,7.698c-6.853-2.262-13.673-3.122-20.768-1.926c-1.652,0.278-3.315,0.498-4.961,0.807
		C885.034,929.345,867.877,910.247,874.146,886.371z"/>
	<path fill="#542206" d="M588.398,468.681c14.305-30.938,17.807-61.952,17.638-93.61c-0.066-12.362-3.579-16.814-15.336-20.289
		c-2.575-0.761-5.204-1.35-7.825-1.946c-14.599-3.318-22.149-13.206-21.528-28.131c0.198-4.759,1.567-9.242,2.938-13.736
		c0.392-1.284,0.855-2.546,1.242-3.831c8.022-26.654-0.982-45.666-26.624-56.793c-14.093-6.115-28.726-6.45-43.468-4.151
		c-22.19,3.461-44.43,6.882-65.432,15.486c-1.671,0.684-3.799,2.472-5.439,0.257c-1.848-2.496-1.166-5.223,0.872-7.322
		c3.81-3.925,8.562-6.597,13.632-8.377c26.494-9.301,53.741-15.825,81.877-13.22c24.932,2.308,44.149,14.958,54.919,38.528
		c5.508,12.054,3.483,24.27,0.603,36.464c-1.077,4.559-2.638,9.014-3.533,13.604c-1.97,10.107,1.391,14.912,11.234,17.155
		c4.895,1.115,9.817,2.343,14.501,4.116c11.058,4.184,17.837,12.491,18.639,24.126c2.13,30.92-1.662,60.918-16.668,88.689
		C598.087,460.422,594.728,464.536,588.398,468.681z"/>
	<path fill="#542206" d="M110.934,499.652c2.807-9.419-0.81-16.882-5.304-23.989c-9.361-14.803-15.337-31.224-22.616-47.008
		c-3.831-8.308-4.741-17.352-2.257-26.44c0.368-1.349,1.006-2.617,2.589-2.573c1.538,0.043,2.105,1.399,2.58,2.639
		c0.237,0.618,0.383,1.29,0.456,1.95c2.877,26.105,18.874,42.031,41.288,52.751c15.949,7.628,28.023,19.44,37.619,33.941
		c6.853,10.355,5.908,21.38,2.011,34.144c-6.887-11.427-5.966-25.217-17.498-32.824c-2.537,4.402-4.768,8.863-7.534,12.964
		c-8.455,12.535-23.762,12.692-33.622,0.283c6.017-0.924,12.009-0.582,17.893-0.974c10.448-0.695,13.205-9.289,18.479-15.388
		c1.01-1.167-0.006-2.555-1.004-3.465c-2.47-2.252-4.948-4.506-7.554-6.595c-2.008-1.61-3.345-1.683-5.727,0.626
		C124.081,486.142,117.483,492.615,110.934,499.652z"/>
	<path fill="#542206" d="M364.178,352.681c-4.95,0.472-9.659-1.386-13.997-3.961c-8.376-4.974-16.89-9.555-26.289-12.339
		c-1.57-0.465-3.005-1.459-4.43-2.327c-2.821-1.721-3.781-4.275-1.191-6.561c6.489-5.728,12.184-12.622,19.84-16.723
		c15.554-8.332,32.889-1.189,39.17,15.714c1.146,3.085,1.886,6.34,2.195,9.739C380.616,348.784,377.08,352.813,364.178,352.681z"/>
	<path fill="#542206" d="M931.539,741.596c5.549,7.017,3.219,12.055,1.045,16.751c-4.508,9.739-8.937,19.564-14.246,28.871
		c-9.107,15.965-8.59,31.834-1.207,48.05c4.863,10.681,9.707,21.37,14.529,32.07c3.016,6.692,5.593,13.526,6.818,20.967
		c-3.476,0.088-3.932-2.579-5.1-4.318c-5.982-8.911-11.933-17.844-17.77-26.851c-5.505-8.495-9.447-17.667-12.366-27.399
		c-3.985-13.289-2.514-25.893,3.859-37.918c5.809-10.96,11.996-21.728,18.278-32.427C928.27,754.47,931.006,749.591,931.539,741.596
		z"/>
	<path fill="#542206" d="M247.888,634.96c-4.202-7.734-11.497-12.506-17.893-18.016c-2.686-2.314-4.718-4.192-2.714-7.223
		c2.28-3.45,5.561-3.118,8.579-0.422c1.747,1.561,3.527,3.085,5.28,4.639c2.361,2.092,4.625,3.891,7.784,1.042
		c3.823-3.448,7.587-1.336,11.06,0.747c8.619,5.172,17.053,10.646,24.925,16.916c2.095,1.669,3.911,3.375,6.809,3.875
		c17.631,3.046,29.524,15.501,42.493,26.213c-13.492-5.459-24.291-15.724-37.481-21.316c-1.231,1.098-1.257,2.009-0.775,2.956
		c2.272,4.468-0.041,5.76-3.837,4.732c-6.495-1.76-12.378-5.039-18.063-8.628c-1.393-0.88-2.836-1.682-4.266-2.525
		c-3.719,6.839-4.409,6.96-10.281,3.809c-4.076-2.187-6.789-6.652-11.898-7.063L247.888,634.96z"/>
	<path fill="#542206" d="M531.484,542.384c-9.278-10.596-16.961-19.638-25.357-28.031c-27.094-27.082-55.32-52.779-87.909-73.25
		c-4.257-2.674-8.711-5.045-12.881-7.844c-2.021-1.357-5.654-2.577-4.178-5.781c1.643-3.566,4.666-1.076,6.961-0.158
		c13.775,5.511,26.59,12.846,38.464,21.656c30.375,22.537,56.476,49.344,78.536,80.061
		C527.545,532.413,530.362,535.737,531.484,542.384z"/>
	<path fill="#542206" d="M526.947,335.754c-14.275-17.14-29.706-30.799-46.174-43.344c-11.95-9.103-24.681-16.144-40.19-16.669
		c-1.964-0.066-3.931-0.826-5.845-1.429c-2.546-0.802-4.035-2.826-3.729-5.313c0.366-2.975,3.08-2.94,5.466-3.118
		c11.969-0.889,23.452,0.711,34.056,6.67c21.539,12.105,38.221,29.331,51.723,49.756
		C524.535,325.755,526.836,329.59,526.947,335.754z"/>
	<path fill="#542206" d="M963.541,608.394c-13.899-7.405-26.01-13.375-35.478-23.51c11.513,5.085,23.036,10.146,34.533,15.265
		c4.893,2.178,9.768,4.405,14.579,6.757c1.782,0.871,3.453,2.047,5,3.3c1.571,1.272,3.181,2.915,2.646,5.083
		c-0.701,2.837-3.482,2.969-5.683,2.893c-21.124-0.729-42.192-1.938-62.216-9.729c-0.621-0.241-1.211-0.584-1.777-0.94
		c-2.227-1.402-5.157-2.587-3.352-6.042c1.561-2.989,3.924-1.416,6.098-0.653C931.852,605.71,946.277,607.856,963.541,608.394z"/>
	<path fill="#542206" d="M523.38,354.007c-9.829-9.785-19.612-18.87-29.683-27.658c-10.41-9.085-21.448-17.063-34.135-22.639
		c-1.226-0.539-2.498-1.004-3.651-1.673c-1.856-1.077-3.193-2.736-2.492-4.91c0.603-1.871,2.649-1.79,4.259-1.712
		c1.652,0.08,3.406,0.252,4.908,0.881c26.13,10.943,46.557,28.454,60.731,53.083C523.936,350.455,524.85,351.655,523.38,354.007z"/>
	<path fill="#542206" d="M1049.622,823.07c0.26,24.751-17.878,50.833-38.493,57.734c-1.9,0.636-3.9,0.987-5.867,1.407
		c-2.989,0.638-5.659-0.178-6.526-3.17c-1.042-3.597,2.357-3.089,4.353-3.852c8.969-3.426,16.563-8.789,22.572-16.314
		c4.393-5.502,9.077-10.812,13.018-16.623C1042.374,836.804,1045.262,830.808,1049.622,823.07z"/>
	<path fill="#542206" d="M247.608,634.696c0.932,0.939,1.856,1.887,2.799,2.816c1.186,1.169,2.671,2.384,1.286,4.161
		c-0.919,1.18-2.494,0.872-3.75,0.436c-2.526-0.878-5.186-1.602-7.453-2.954c-22.774-13.582-45.217-27.642-64.129-46.551
		c-1.423-1.423-2.872-2.835-4.151-4.383c-1.479-1.79-2.782-3.725-5.035-6.784c5.23,0.738,7.552,3.804,10.232,6.191
		c21.138,18.836,45.286,33.271,69.541,47.544c0.213,0.125,0.642-0.118,0.955-0.201C247.888,634.96,247.608,634.696,247.608,634.696z
		"/>
	<path fill="#542206" d="M105.698,373.999c-0.016-17.964,10.038-30.068,20.557-33.217c3.31-0.991,6.701-1.929,9.385,0.901
		c2.317,2.443,1.626,5.73,0.858,8.604c-1.554,5.819-4.436,11.019-11.283,10.925C116.486,361.091,109.747,363.762,105.698,373.999z"
		/>
	<path fill="#542206" d="M504.326,368.978c-7.644-5.69-14.404-12.07-20.32-19.349c-1.04-1.28-1.883-2.819-2.436-4.374
		c-0.993-2.795,0.146-5.416,1.88-7.412c1.652-1.902,3.778-0.135,5.554,0.461c6.789,2.28,12.597,6.305,17.966,10.902
		c4.289,3.672,4.431,6.705,1.167,11.389C508.137,360.595,504.591,368.395,504.326,368.978z"/>
	<path fill="#542206" d="M245.269,737.736c-5.027-6.865-7.658-14.205-10.649-21.22c-6.707-15.732-13.56-31.469-17.027-48.365
		c-0.336-1.637-0.898-3.244-1.068-4.894c-0.214-2.085,0.114-4.385,2.498-4.861c2.855-0.57,2.849,2.077,3.369,3.911
		c6.768,23.91,14.578,47.474,23.334,70.729C246.185,734.255,246.687,735.581,245.269,737.736z"/>
	<path fill="#542206" d="M677.559,841.043c-14.007,0.786-52.657-24.057-66.047-41.641c3.212-1.758,5.07,0.973,7.039,2.298
		c13.083,8.809,26.048,17.794,39.048,26.727C663.807,832.693,669.78,837.303,677.559,841.043z"/>
	<path fill="#542206" d="M364.75,644.817c5.719-2.276,9.213-1.085,12.497,0.668c17.926,9.568,31.159,24.371,43.994,39.675
		C400.399,675.225,386.037,656.547,364.75,644.817z"/>
	<path fill="#542206" d="M325.111,529.509c-12.72-12.204-25.469-24.379-38.123-36.651c-1.612-1.563-3.65-3.564-1.77-6.079
		c1.475-1.974,3.687-1.405,5.431-0.21C306.378,497.347,318.007,511.519,325.111,529.509z"/>
	<path fill="#542206" d="M374.014,667.428c-3.587-3.207-7.257-6.327-10.744-9.639c-8.725-8.286-17.36-16.666-26.05-24.989
		c-1.576-1.51-2.775-3.233-1.037-5.138c1.368-1.5,3.314-2.315,5.442-1.189c1.179,0.624,2.468,1.151,3.452,2.014
		C357.4,639.295,367.047,652.187,374.014,667.428z"/>
	<path fill="#542206" d="M286.49,355.925c16.197-3.891,56.043,12.894,73.401,30.388C336.331,374.121,312.142,363.468,286.49,355.925
		z"/>
	<path fill="#542206" d="M803.054,456.842c-2.863,0.996-4.111-0.394-5.416-1.257c-11.065-7.323-22.118-14.667-33.081-22.142
		c-2.125-1.449-4.89-3.379-2.475-6.439c2.079-2.634,5.19-3.111,8.137-1.355c2.28,1.358,4.402,3.047,6.389,4.819
		C785.823,438.688,795.684,446.269,803.054,456.842z"/>
	<path fill="#542206" d="M733.588,382.005c-13.42-1.119-25.25-6.138-36.353-13.113c-1.443-0.907-2.86-2.021-2.158-3.981
		c0.616-1.72,2.177-2.456,3.928-2.68c0.655-0.084,1.387-0.169,1.991,0.03C713.371,366.338,724.694,372.133,733.588,382.005z"/>
	<path fill="#542206" d="M264.073,716.01c-3.989-5.633-5.95-12.365-11.126-19.081c0.223,6.601,3.103,11.5,0.912,18.408
		c-7.076-11.111-11.25-21.96-13.026-33.778c-0.251-1.672,0.803-3.336,2.802-3.454c1.52-0.089,2.263,1.105,2.599,2.512
		c1.254,5.256,4.02,8.473,8.75,12.03C261.782,697.761,262.921,707.395,264.073,716.01z"/>
	<path fill="#542206" d="M459.247,502.367c-11.041-7.271-22.084-14.537-33.117-21.819c-1.144-0.755-2.219-1.791-1.751-3.243
		c0.555-1.724,2.215-2.751,3.837-2.692c1.921,0.07,3.93,0.667,5.698,1.478c11.573,5.31,19.692,14.377,27.106,24.18
		C460.429,500.97,459.838,501.669,459.247,502.367z"/>
	<path fill="#542206" d="M447.964,693.085c-5.245-1.076-7.553-4.092-10.333-6.225c-9.81-7.527-17.801-17.34-29.075-23.063
		c-1.485-0.754-2.536-2.277-1.565-4.188c0.845-1.664,2.44-2.405,4.147-2.393c2.453,0.017,4.419,1.416,6.291,2.892
		C429.015,669.247,437.817,680.878,447.964,693.085z"/>
	<path fill="#542206" d="M646.411,778.112c5.215-1.131,9.557,0.69,14.049,1.746c5.836,1.372,11.594,3.46,17.477-0.424
		c2.426-1.601,5.392-1.136,6.579,2.181c1.143,3.196-1.891,3.755-3.645,5.082c-1.895,1.434-3.88,2.851-6.283,3.023
		C663.281,790.53,654.372,785.416,646.411,778.112z"/>
	<path fill="#542206" d="M938.432,673.34c7.458,9.406,16.844,13.579,25.425,18.895c8.767,5.431,17.758,10.501,26.395,16.273
		c-10.8-2.005-20.521-6.599-29.917-12.063C944.729,687.371,940.436,683.189,938.432,673.34z"/>
	<path fill="#542206" d="M332.15,586.687c-6.027-5.958-12.038-11.933-18.088-17.868c-3.107-3.048-6.284-6.026-9.428-9.036
		c-1.203-1.151-2.726-2.331-1.785-4.203c1.152-2.291,3.19-1.77,5.215-1.246c2.646,0.684,5.174,1.722,7.086,3.593
		C323.314,565.912,329.277,575.292,332.15,586.687z"/>
	<path fill="#542206" d="M605.938,507.694c-5.849-3.128-11.522-6.667-17.596-9.27c-6.37-2.73-12.892-5.594-20.151-4.906
		c-1.913,0.181-3.565-0.333-3.724-2.208c-0.085-0.995,1.142-2.383,2.128-3.128c2.171-1.639,4.604-2.469,7.483-1.775
		C587.33,489.599,598.331,496.293,605.938,507.694z"/>
	<path fill="#542206" d="M933.203,427.876c-12.288-1.902-23.918-5.769-35.543-9.627c-1.779-0.59-4.282-1.382-3.397-3.99
		c0.661-1.948,2.69-3.161,4.865-2.748C911.936,413.939,923.706,418.555,933.203,427.876z"/>
	<path fill="#542206" d="M974.952,675.862c-6.618,0.283-12.568-1.515-17.879-5.476c-1.45-1.081-2.311-2.464-2.001-4.266
		c0.327-1.903,1.983-3.147,3.545-2.97c8.995,1.017,17.446,4.118,25.554,7.935c1.968,0.927,1.393,3.792-1.214,4.328
		C980.367,675.945,977.626,675.743,974.952,675.862z"/>
	<path fill="#542206" d="M506.235,842.334c-10.078-8.578-17.048-19.352-23.195-30.73c-0.901-1.667-0.636-3.335,1.055-4.286
		c1.156-0.65,2.594-0.637,3.782,0.254c0.524,0.393,1.082,0.832,1.413,1.378C495.763,819.643,502.271,830.322,506.235,842.334z"/>
	<path fill="#542206" d="M640.84,783.239c9.477,12.737,22.452,22.845,28.964,37.809C655.027,812.293,646.029,799.197,640.84,783.239
		z"/>
	<path fill="#542206" d="M619.946,603.944c-4.696-0.151-7.176-2.543-10.086-4.005c-3.506-1.762-6.728-4.315-11.183-3.455
		c-3.74,0.721-5.285-2.271-6.542-5.004c-0.792-1.722,0.352-3.167,1.68-4.315c2.489-2.153,5.073-2.77,8.291-1.33
		C607.356,588.184,614.68,595.242,619.946,603.944z"/>
	<path fill="#542206" d="M423.749,553.868c-10.577-7.636-19.89-16.639-30.681-23.814c-0.571-0.38-0.89-1.901-0.605-2.595
		c0.298-0.726,1.401-1.313,2.269-1.577c2.08-0.633,3.943,0.188,5.589,1.404C409.995,534.431,417.45,543.578,423.749,553.868z"/>
	<path fill="#542206" d="M330.379,388.905c-10.71-1.567-20.831-4.949-30.757-8.963c-1.061-0.429-2.41-1.389-2.132-3.033
		c0.341-2.016,2.047-2.654,3.653-2.69c2.287-0.051,4.721,0.009,6.856,0.726C316.457,377.785,324.265,381.811,330.379,388.905z"/>
	<path fill="#542206" d="M606.812,634.158c-3.181,1.576-4.999-0.538-6.887-1.512c-7.075-3.651-13.532-8.493-21.266-10.874
		c-1.272-0.391-2.578-1.008-2.715-2.525c-0.177-1.955,1.299-3.017,2.781-3.674c2.955-1.31,5.875-0.727,8.603,0.832
		C595.098,620.845,601.883,626.335,606.812,634.158z"/>
	<path fill="#542206" d="M317.417,275.358c-0.758-0.862-3.284-0.322-2.507-2.202c2.802-6.78,19.506-16.194,26.664-15.26
		c0.652,0.085,1.407,0.133,1.904,0.491c1.041,0.749,2.523,1.564,2.75,2.59c0.27,1.219-0.914,2.423-2.424,2.628
		c-8.437,1.142-15.3,6.271-23.063,9.123c-1.438,0.529-3.282,0.904-3.618,2.941L317.417,275.358z"/>
	<path fill="#542206" d="M318.06,548.027c-8.502-10.209-17.027-20.4-25.48-30.65c-1.194-1.448-3.021-3.284-0.788-5.062
		c1.524-1.213,3.212,0.056,4.323,1.284C305.238,523.69,313.475,534.392,318.06,548.027z"/>
	<path fill="#542206" d="M595.425,648.649c-7.47-2.184-12.675-7.694-19.657-10.239c-2.048-0.746-4.981-3.398-3.132-6.386
		c2.135-3.45,5.342-3.304,8.668-0.969C587.695,635.544,592.254,641.461,595.425,648.649z"/>
	<path fill="#542206" d="M515.079,376.569c13.38,1.586,22.741,10.313,32.28,18.721c-0.337,0.622-0.674,1.243-1.01,1.865
		c-10.942-5.839-21.884-11.677-32.825-17.516C514.041,378.616,514.56,377.592,515.079,376.569z"/>
	<path fill="#542206" d="M317.123,275.67c2.465,1.176,4.603-0.085,6.653-1.094c2.216-1.089,3.943-0.836,4.943,1.391
		c1.091,2.429-0.677,3.768-2.51,4.677c-3.899,1.933-7.883,3.696-11.84,5.511c-4.119,1.889-7.959,4.515-13.32,5.657
		c2.544-5.774,6.977-8.227,10.802-11.308c1.957-1.576,5.257-1.753,5.561-5.138C317.417,275.358,317.123,275.67,317.123,275.67z"/>
	<path fill="#542206" d="M101.606,525.155c-4.837-8.48-5.256-17.486-3.275-26.724c0.401-1.871,1.002-4.317,3.619-3.96
		c2.514,0.343,2.923,2.635,2.468,4.682C102.516,507.705,103.256,516.455,101.606,525.155z"/>
	<path fill="#542206" d="M920.756,569.666c13.519,4.37,26.492,7.905,40.278,9.996c-4.672,3.447-10.135,3.365-21.299,0.099
		C927.382,576.146,925.271,575.068,920.756,569.666z"/>
	<path fill="#542206" d="M438.439,501.327c-7.171-5.488-14.414-10.887-21.459-16.531c-1.572-1.259-4.529-2.856-2.083-5.61
		c2.24-2.522,4.402-0.339,6.111,1.004C428.299,485.918,435.369,491.895,438.439,501.327z"/>
	<path fill="#542206" d="M612.429,623.183c-7.168-3.348-12.823-5.948-18.435-8.638c-1.559-0.747-2.693-2.006-2.406-3.913
		c0.281-1.868,1.754-2.765,3.354-3.244c2.738-0.82,5.314-0.189,7.424,1.681C606.306,612.562,610.378,615.997,612.429,623.183z"/>
	<path fill="#542206" d="M727.811,396.484c-9.246-2.835-17.996-6.587-25.413-12.93c-1.21-1.035-2.404-2.589-0.96-4.271
		c1.014-1.181,2.57-0.831,3.728-0.223C713.686,383.537,721.833,388.53,727.811,396.484z"/>
	<path fill="#542206" d="M920.739,409.165c-7.338,1.061-13.913-0.935-20.29-3.815c-1.53-0.691-3.256-1.863-2.787-3.548
		c0.591-2.126,2.737-2.963,4.884-2.375C909.256,401.266,915.629,403.844,920.739,409.165z"/>
	<path fill="#542206" d="M959.327,568.397c-11.242-2.115-20.347-7.142-30.35-12.652C941.95,555.86,954.432,560.979,959.327,568.397z
		"/>
	<path fill="#542206" d="M530.513,830.801c-5.59-1.301-8.232-4.916-10.733-8.077c-3.405-4.303-5.112-0.53-8.003,1.238
		c0.301-2.831,0.381-5.219,0.838-7.534c0.827-4.187,3.732-5.409,6.92-2.55C524.425,818.264,527.69,823.84,530.513,830.801z"/>
	<path fill="#542206" d="M913.983,525.428c14.117-3.275,25.661,5.177,38.446,8.053C939.257,532.541,926.903,527.578,913.983,525.428
		z"/>
	<path fill="#542206" d="M778.581,417.324c-5.549-2.592-11.153-5.074-16.612-7.841c-1.657-0.84-3.607-2.358-1.991-4.669
		c1.29-1.846,3.525-2.115,5.368-1.123c5.511,2.965,10.628,6.48,14.353,11.567C779.326,415.947,778.953,416.636,778.581,417.324z"/>
	<path fill="#542206" d="M980.319,729.077c-5.61-2.902-11.291-5.679-16.788-8.783c-1.63-0.92-3.37-2.717-1.814-4.943
		c1.379-1.973,2.976-0.296,4.377,0.322C972.257,718.392,977.715,721.99,980.319,729.077z"/>
	<path fill="#542206" d="M462.311,314.321c-6.916-1.318-12.167-2.252-17.383-3.352c-1.709-0.361-3.56-1.674-3.415-3.259
		c0.221-2.41,2.627-2.771,4.675-2.574C452.403,305.733,457.861,307.831,462.311,314.321z"/>
	<path fill="#542206" d="M297.286,308.335c3.534-6.806,7.975-10.383,11.975-14.329c1.197-1.18,2.705-2.116,4.245-0.324
		c1.402,1.632,0.798,3.182-0.552,4.341C308.679,301.692,304.021,304.819,297.286,308.335z"/>
	<path fill="#542206" d="M732.232,414.69c-5.282-3.385-12.426-4.299-17.812-12.114c8.634,2.089,13.721,6.461,18.817,10.806
		C733.842,413.896,733.603,414.341,732.232,414.69z"/>
	<path fill="#542206" d="M320.66,396.208c-4.629-0.06-8.286-1.597-11.735-3.621c-1.477-0.867-2.636-2.237-1.165-4.082
		c1.074-1.347,2.355-1.003,3.473-0.084C314.24,390.895,318.122,392.334,320.66,396.208z"/>
	<path fill="#542206" d="M540.98,826.307c-4.528-3.773-9.056-7.546-13.584-11.319C534.068,816.265,539.019,819.546,540.98,826.307z"
		/>
</g>
</svg>
